<svg xmlns="http://www.w3.org/2000/svg" width="36" height="36" viewBox="0 0 36 36" fill="none">
  <path d="M19.2344 4.84775L19.2387 3.84776L17.2388 3.83904L17.2344 4.83903L19.2344 4.84775ZM17.1209 30.8388C17.1185 31.3911 17.5643 31.8407 18.1166 31.8431C18.6688 31.8455 19.1185 31.3998 19.1209 30.8475L17.1209 30.8388ZM28.1601 21.8869L29.1601 21.8912L29.1688 19.8912L28.1688 19.8869L28.1601 21.8869ZM17.3461 30.2604C17.0795 30.7441 17.2555 31.3523 17.7392 31.6189C18.2229 31.8854 18.8311 31.7094 19.0977 31.2257L17.3461 30.2604ZM8.26953 19.8L7.26954 19.7956L7.26082 21.7956L8.26081 21.7999L8.26953 19.8ZM17.2344 4.83903L17.1214 30.7382L19.1214 30.7469L19.2344 4.84775L17.2344 4.83903ZM17.1214 30.7382L17.1209 30.8388L19.1209 30.8475L19.1214 30.7469L17.1214 30.7382ZM28.1688 19.8869C26.6964 19.8805 25.2867 20.6696 24.0842 21.6406C22.8572 22.6315 21.7014 23.9303 20.7171 25.1927C19.7282 26.461 18.8876 27.7249 18.2955 28.6689C17.9988 29.1418 17.7631 29.5367 17.6009 29.8146C17.5198 29.9536 17.4569 30.0635 17.414 30.1394C17.3925 30.1773 17.3759 30.2068 17.3646 30.2271C17.3589 30.2373 17.3545 30.2453 17.3514 30.2508C17.3498 30.2536 17.3486 30.2558 17.3477 30.2574C17.3473 30.2582 17.3469 30.2589 17.3467 30.2594C17.3465 30.2596 17.3464 30.2599 17.3463 30.26C17.3462 30.2602 17.3461 30.2604 18.2219 30.7431C19.0977 31.2257 19.0976 31.2258 19.0976 31.2259C19.0976 31.2259 19.0976 31.2259 19.0976 31.2259C19.0977 31.2258 19.0978 31.2255 19.098 31.2251C19.0984 31.2243 19.0992 31.223 19.1003 31.221C19.1025 31.2171 19.106 31.2108 19.1107 31.2023C19.1202 31.1853 19.1348 31.1593 19.1542 31.125C19.1932 31.0562 19.2517 30.9539 19.3282 30.8229C19.4812 30.5608 19.7058 30.1843 19.9897 29.7316C20.5587 28.8245 21.36 27.6207 22.2943 26.4225C23.2332 25.2184 24.2817 24.0519 25.3408 23.1966C26.4245 22.3214 27.3825 21.8835 28.1601 21.8869L28.1688 19.8869ZM18.1214 30.7425C19.0502 30.372 19.0501 30.3717 19.0499 30.3714C19.0499 30.3712 19.0497 30.3709 19.0496 30.3706C19.0494 30.37 19.0491 30.3692 19.0487 30.3683C19.048 30.3665 19.047 30.364 19.0458 30.361C19.0433 30.355 19.0399 30.3466 19.0356 30.3359C19.0268 30.3145 19.0142 30.284 18.9979 30.2449C18.9651 30.1667 18.9173 30.0543 18.8547 29.9126C18.7296 29.6292 18.5454 29.2275 18.3061 28.7469C17.8287 27.7882 17.1257 26.5027 16.2265 25.2099C15.331 23.9223 14.2169 22.5925 12.9078 21.5749C11.5973 20.5561 10.0348 19.8077 8.26953 19.8L8.26081 21.7999C9.44524 21.8051 10.5897 22.306 11.6803 23.1538C12.7723 24.0028 13.7535 25.157 14.5846 26.3519C15.4121 27.5416 16.0669 28.7369 16.5158 29.6384C16.7396 30.0878 16.9107 30.4612 17.025 30.7202C17.0821 30.8496 17.125 30.9503 17.1531 31.0175C17.1672 31.051 17.1775 31.0762 17.1841 31.0923C17.1874 31.1004 17.1898 31.1062 17.1912 31.1097C17.1919 31.1115 17.1924 31.1126 17.1926 31.1132C17.1927 31.1135 17.1928 31.1136 17.1928 31.1136C17.1928 31.1136 17.1927 31.1135 17.1927 31.1135C17.1927 31.1133 17.1926 31.1131 18.1214 30.7425Z" fill="#eeeeee"/>
</svg>