<svg width="71" height="70" viewBox="0 0 71 70" fill="none" xmlns="http://www.w3.org/2000/svg">
<path d="M27.5386 61.3579C28.5915 61.6761 29.4693 62.4164 29.5173 63.6085L28.9578 63.8572C28.9819 62.7723 28.1438 62.1201 27.3781 61.8887C26.6646 61.673 25.9512 61.7707 25.7276 62.5104C25.5198 63.1978 25.9248 63.5861 26.7492 64.0633L27.3424 64.3945C28.1025 64.8332 28.7778 65.4267 28.47 66.4448C28.157 67.4803 27.095 67.7576 26.1117 67.4604C25.0414 67.1368 24.3855 66.4162 24.3118 65.4348L24.9061 65.1966C24.9286 66.0961 25.4394 66.6684 26.2835 66.9235C26.9883 67.1366 27.6644 66.9421 27.8564 66.3068C28.0485 65.6716 27.701 65.2817 26.9992 64.8701L26.3617 64.497C25.5286 64.0172 24.8245 63.4245 25.1481 62.3542C25.4558 61.3361 26.4682 61.0343 27.5386 61.3579Z" fill="#EEEEEE"/>
<path d="M20.8915 58.3285C21.9183 58.9838 22.1859 60.136 21.4083 61.3544C20.6453 62.5498 19.5036 62.8348 18.5074 62.199C17.5036 61.5584 17.3056 60.483 18.0148 59.3719C18.0735 59.2799 18.1475 59.1977 18.1943 59.1413L20.9989 60.9313C21.5551 59.9922 21.3505 59.2146 20.6225 58.7499C19.8792 58.2755 19.2982 58.4763 18.9074 58.7337L18.8307 58.1779C19.3798 57.8921 20.1099 57.8296 20.8915 58.3285ZM18.7715 61.7852C19.4459 62.2156 20.1593 62.0778 20.7565 61.2943L18.3963 59.7879C17.9141 60.6449 18.0972 61.3549 18.7715 61.7852Z" fill="#EEEEEE"/>
<path d="M15.4441 53.8183C16.2672 54.7163 16.2287 55.8985 15.1632 56.8752C14.1178 57.8334 12.9412 57.8144 12.1426 56.9433C11.3379 56.0654 11.4239 54.9754 12.3956 54.0847C12.476 54.011 12.5687 53.9507 12.6285 53.9082L14.8767 56.3609C15.6563 55.5969 15.6591 54.7928 15.0755 54.1562C14.4797 53.5062 13.8665 53.5503 13.4226 53.6983L13.4918 53.1415C14.096 53.0069 14.8175 53.1348 15.4441 53.8183ZM12.5045 56.6116C13.0451 57.2013 13.7699 57.2521 14.5489 56.649L12.657 54.585C11.9701 55.2887 11.9639 56.0219 12.5045 56.6116Z" fill="#EEEEEE"/>
<path d="M9.78213 45.1829L9.94125 45.7614L5.73402 46.9186L5.5749 46.3401L6.74942 46.017C6.01599 46.0585 5.31848 45.7507 5.10391 44.9706C4.89417 44.208 5.2007 43.6428 6.03886 43.3652C5.30784 43.4154 4.58798 43.0948 4.371 42.306C4.1492 41.4996 4.50591 40.9112 5.47007 40.646L8.31872 39.8625L8.47784 40.441L5.76066 41.1883C5.0244 41.3909 4.75423 41.814 4.93264 42.4626C5.13998 43.2164 5.88744 43.3974 6.61494 43.1973L9.05163 42.5271L9.20834 43.0968L6.49117 43.8442C5.7549 44.0467 5.48473 44.4698 5.66555 45.1272C5.87048 45.8722 6.61794 46.0532 7.34544 45.8531L9.78213 45.1829Z" fill="#EEEEEE"/>
<path d="M9.57406 35.7866C9.55019 36.377 9.17071 36.762 8.83711 36.9123L8.4147 36.5586C8.77629 36.3912 9.03145 36.1559 9.0476 35.7562C9.06192 35.402 8.88146 35.1399 8.35326 34.9275L7.92388 34.7464L7.91938 35.0828L3.64015 36.5111L3.66586 35.8753L6.69866 34.897L7.61038 34.6245L6.72399 34.2703L3.77969 33.0595L3.80503 32.4328L8.60815 34.4738C9.29728 34.7564 9.59793 35.1962 9.57406 35.7866Z" fill="#EEEEEE"/>
<path d="M10.7012 23.5129L10.3259 24.1884L5.93318 23.1104L6.25544 22.5303L9.17894 23.3328L10.1264 23.6304L9.40408 22.9275L7.27962 20.6867L7.6372 20.043L10.6622 20.6627L11.6406 20.9046L10.8874 20.2574L8.65697 18.2073L8.98364 17.6192L12.2198 20.7792L11.8445 21.4547L8.85129 20.8526L7.89769 20.6036L8.60849 21.2897L10.7012 23.5129Z" fill="#EEEEEE"/>
<path d="M16.395 15.8115C15.521 16.6337 14.3014 16.5579 13.3546 15.5515C12.4078 14.5451 12.4065 13.3232 13.2804 12.5009C14.1544 11.6787 15.3806 11.7483 16.3274 12.7547C17.2742 13.7611 17.2689 14.9892 16.395 15.8115ZM16.0461 15.4407C16.6751 14.8489 16.6815 14.0066 15.8904 13.1658C15.0931 12.3183 14.2458 12.2667 13.6168 12.8585C12.9944 13.444 12.9943 14.2929 13.7916 15.1404C14.5827 15.9813 15.4237 16.0262 16.0461 15.4407Z" fill="#EEEEEE"/>
<path d="M21.363 11.8793L20.8428 12.1782L18.6688 8.39491L19.189 8.09597L19.7823 9.1285C19.58 8.44795 19.6988 7.68769 20.3451 7.31629C20.7865 7.06265 21.3121 7.13805 21.611 7.65825C21.7741 7.942 21.839 8.21922 21.8406 8.38609L21.2809 8.70768C21.3155 8.53057 21.2696 8.23188 21.1383 8.0033C20.9979 7.75896 20.7292 7.6198 20.3824 7.81909C19.8149 8.1452 19.728 9.03392 20.1039 9.68812L21.363 11.8793Z" fill="#EEEEEE"/>
<path d="M26.0745 9.6092L25.5004 9.78369L23.7291 3.95627L24.3031 3.78178L25.2655 6.94772L25.398 7.47751L25.782 6.77169L26.9451 4.78394L27.667 4.5645L26.4555 6.64299L28.9708 8.7288L28.275 8.94031L26.1672 7.10117L25.6092 8.07842L26.0745 9.6092Z" fill="#EEEEEE"/>
<path d="M43.5859 9.37215C42.538 9.03783 41.6715 8.2843 41.6418 7.09159L42.205 6.85144C42.1644 7.93581 42.9924 8.60072 43.7545 8.84386C44.4647 9.07043 45.1794 8.98356 45.4142 8.24742C45.6325 7.56323 45.2336 7.16878 44.4165 6.6791L43.8285 6.33883C43.0752 5.88858 42.409 5.28483 42.7323 4.27155C43.0611 3.24094 44.1272 2.97992 45.1058 3.29213C46.1711 3.63198 46.8159 4.3625 46.8746 5.34497L46.2767 5.57407C46.2679 4.67433 45.7659 4.09433 44.9258 3.82632C44.2243 3.60252 43.5454 3.78667 43.3437 4.41889C43.142 5.05111 43.4834 5.44631 44.1789 5.86856L44.8106 6.25139C45.6363 6.74383 46.3312 7.34721 45.9914 8.41245C45.6681 9.42574 44.6512 9.712 43.5859 9.37215Z" fill="#EEEEEE"/>
<path d="M50.186 12.5027C49.1693 11.8317 48.9194 10.6756 49.7155 9.46924C50.4966 8.28562 51.6426 8.01805 52.6289 8.66899C53.6229 9.32493 53.8044 10.4032 53.0784 11.5034C53.0183 11.5944 52.943 11.6754 52.8954 11.7311L50.1184 9.8985C49.5479 10.829 49.7406 11.6097 50.4614 12.0854C51.1974 12.5711 51.7814 12.3793 52.1761 12.1278L52.2443 12.6847C51.6909 12.9621 50.9599 13.0134 50.186 12.5027ZM52.3585 9.0787C51.6909 8.63807 50.9754 8.76495 50.3663 9.53932L52.7032 11.0815C53.1985 10.2321 53.0262 9.51933 52.3585 9.0787Z" fill="#EEEEEE"/>
<path d="M55.5639 17.0953C54.7545 16.1849 54.8111 15.0035 55.8914 14.0431C56.9513 13.1009 58.1275 13.1379 58.9126 14.0211C59.7038 14.9112 59.6012 15.9998 58.616 16.8756C58.5345 16.948 58.4409 17.0069 58.3805 17.0484L56.17 14.5618C55.3788 15.3137 55.3638 16.1177 55.9375 16.7632C56.5234 17.4222 57.1372 17.3875 57.5833 17.2463L57.5056 17.8019C56.8994 17.9272 56.1799 17.7884 55.5639 17.0953ZM58.5457 14.3473C58.0143 13.7494 57.2903 13.6875 56.5021 14.2787L58.3624 16.3713C59.0599 15.6782 59.0772 14.9452 58.5457 14.3473Z" fill="#EEEEEE"/>
<path d="M61.0934 25.8166L60.9432 25.2357L65.1676 24.1429L65.3178 24.7237L64.1385 25.0288C64.8725 24.9986 65.5652 25.317 65.7679 26.1003C65.9659 26.866 65.6508 27.4264 64.8085 27.6912C65.5402 27.6522 66.2551 27.9837 66.46 28.7758C66.6695 29.5854 66.3038 30.1683 65.3357 30.4188L62.4754 31.1587L62.3252 30.5778L65.0534 29.872C65.7927 29.6808 66.0693 29.2618 65.9008 28.6106C65.705 27.8537 64.9604 27.6613 64.2299 27.8503L61.7833 28.4832L61.6353 27.9112L64.3636 27.2054C65.1028 27.0141 65.3794 26.5952 65.2087 25.9351C65.0151 25.187 64.2705 24.9947 63.5401 25.1836L61.0934 25.8166Z" fill="#EEEEEE"/>
<path d="M61.1579 35.2148C61.1908 34.6248 61.5761 34.2457 61.912 34.1005L62.3289 34.4606C61.9648 34.6224 61.7061 34.8538 61.6839 35.2532C61.6641 35.6072 61.8406 35.8719 62.3655 36.0924L62.792 36.28L62.8017 35.9437L67.1022 34.581L67.0668 35.2163L64.0194 36.1481L63.1036 36.4067L63.9845 36.7744L66.91 38.03L66.8751 38.6563L62.1037 36.5421C61.4189 36.249 61.125 35.8047 61.1579 35.2148Z" fill="#EEEEEE"/>
<path d="M59.844 47.4697L60.2295 46.8L64.6053 47.9449L64.2742 48.5201L61.3633 47.673L60.4205 47.361L61.132 48.0748L63.222 50.3479L62.8546 50.986L59.8394 50.3201L58.8649 50.0633L59.6081 50.7219L61.8069 52.8059L61.4713 53.3889L58.2838 50.1799L58.6693 49.5102L61.653 50.1579L62.6027 50.4214L61.9025 49.7246L59.844 47.4697Z" fill="#EEEEEE"/>
<path d="M54.0328 55.0835C54.9192 54.2747 56.1375 54.3691 57.0688 55.3899C58.0002 56.4106 57.9828 57.6324 57.0964 58.4412C56.21 59.25 54.985 59.1617 54.0536 58.141C53.1223 57.1202 53.1463 55.8923 54.0328 55.0835ZM54.3759 55.4596C53.7379 56.0417 53.7187 56.8837 54.4968 57.7366C55.2811 58.5962 56.1276 58.6607 56.7655 58.0786C57.3968 57.5026 57.4099 56.6538 56.6256 55.7943C55.8475 54.9414 55.0071 54.8836 54.3759 55.4596Z" fill="#EEEEEE"/>
<path d="M49.0051 58.9392L49.5298 58.6483L51.6458 62.4644L51.1211 62.7553L50.5436 61.7138C50.7355 62.3974 50.6051 63.1558 49.9532 63.5172C49.508 63.7641 48.9836 63.6807 48.6926 63.156C48.5339 62.8698 48.4732 62.5916 48.4743 62.4247L49.0387 62.1117C49.0015 62.2883 49.0428 62.5877 49.1706 62.8182C49.3073 63.0647 49.5738 63.2079 49.9236 63.0139C50.496 62.6965 50.5965 61.8092 50.2306 61.1494L49.0051 58.9392Z" fill="#EEEEEE"/>
<path d="M44.26 61.1373L44.8366 60.9715L46.5188 66.8253L45.9422 66.991L45.0282 63.8108L44.9038 63.279L44.509 63.9789L43.3158 65.9487L42.5906 66.157L43.8337 64.0973L41.3505 61.9733L42.0495 61.7725L44.1289 63.6436L44.7018 62.675L44.26 61.1373Z" fill="#EEEEEE"/>
</svg>
