<svg xmlns="http://www.w3.org/2000/svg" width="36" height="36" viewBox="0 0 36 36" fill="none">
  <path d="M9.63582 8.36396L8.92871 7.65685L7.5145 9.07107L8.2216 9.77817L9.63582 8.36396ZM26.6064 28.1629C26.9969 28.5535 27.6301 28.5535 28.0206 28.1629C28.4111 27.7724 28.4111 27.1393 28.0206 26.7487L26.6064 28.1629ZM28.0206 14.0208L28.7277 13.3137L27.3135 11.8995L26.6064 12.6066L28.0206 14.0208ZM26.3541 27.5959C26.51 28.1257 27.0658 28.4289 27.5957 28.2731C28.1255 28.1172 28.4287 27.5614 28.2728 27.0315L26.3541 27.5959ZM12.5353 26.6776L11.8281 27.3847L13.2424 28.7989L13.9495 28.0918L12.5353 26.6776ZM8.2216 9.77817L26.5353 28.0918L27.9495 26.6776L9.63582 8.36396L8.2216 9.77817ZM26.5353 28.0918L26.6064 28.1629L28.0206 26.7487L27.9495 26.6776L26.5353 28.0918ZM26.6064 12.6066C25.5652 13.6478 25.1332 15.2045 24.9763 16.7421C24.8161 18.3111 24.9248 20.0464 25.1284 21.6341C25.3329 23.2293 25.6387 24.7161 25.8922 25.8012C26.0193 26.3448 26.1338 26.7902 26.2169 27.1011C26.2585 27.2566 26.2923 27.3785 26.316 27.4625C26.3278 27.5044 26.3371 27.5369 26.3435 27.5593C26.3467 27.5706 26.3493 27.5793 26.3511 27.5854C26.3519 27.5884 26.3526 27.5908 26.3532 27.5926C26.3534 27.5935 26.3536 27.5942 26.3538 27.5947C26.3539 27.595 26.354 27.5953 26.354 27.5954C26.3541 27.5957 26.3541 27.5959 27.3135 27.3137C28.2728 27.0315 28.2729 27.0316 28.2729 27.0317C28.2729 27.0317 28.2729 27.0317 28.2729 27.0317C28.2729 27.0316 28.2728 27.0313 28.2727 27.0309C28.2724 27.03 28.272 27.0285 28.2713 27.0263C28.2701 27.022 28.2681 27.0152 28.2654 27.0058C28.26 26.9871 28.2518 26.9584 28.2411 26.9204C28.2197 26.8443 28.1882 26.7308 28.149 26.5842C28.0706 26.291 27.9614 25.8664 27.8398 25.3461C27.5962 24.3034 27.3054 22.8869 27.1121 21.3798C26.9179 19.8653 26.8277 18.2994 26.9659 16.9451C27.1073 15.5594 27.4708 14.5707 28.0206 14.0208L26.6064 12.6066ZM27.2424 27.3847C27.6331 26.4642 27.6328 26.4641 27.6325 26.464C27.6323 26.4639 27.632 26.4637 27.6317 26.4636C27.6311 26.4634 27.6303 26.463 27.6294 26.4627C27.6276 26.4619 27.6252 26.4609 27.6222 26.4596C27.6162 26.4571 27.6078 26.4536 27.5971 26.4492C27.5758 26.4403 27.5453 26.4278 27.506 26.4119C27.4275 26.3801 27.3139 26.335 27.1692 26.2796C26.8798 26.1689 26.465 26.017 25.9552 25.8486C24.9382 25.5126 23.5303 25.1069 21.9791 24.8354C20.4343 24.5649 18.7055 24.4199 17.0612 24.6331C15.415 24.8466 13.7835 25.4294 12.5353 26.6776L13.9495 28.0918C14.787 27.2543 15.9484 26.7942 17.3183 26.6165C18.6901 26.4387 20.2006 26.5544 21.6343 26.8054C23.0617 27.0553 24.3716 27.4318 25.3278 27.7476C25.8046 27.9051 26.1902 28.0465 26.4546 28.1476C26.5868 28.1982 26.6885 28.2386 26.7559 28.2659C26.7897 28.2795 26.8148 28.2899 26.8309 28.2966C26.839 28.2999 26.8448 28.3023 26.8483 28.3038C26.85 28.3045 26.8512 28.305 26.8517 28.3053C26.852 28.3054 26.8521 28.3054 26.8521 28.3054C26.8521 28.3054 26.852 28.3054 26.852 28.3054C26.8519 28.3053 26.8517 28.3052 27.2424 27.3847Z" fill="#181818"/>
</svg>