<?xml version="1.0" encoding="UTF-8"?>
<svg version="1.1" xmlns="http://www.w3.org/2000/svg" width="387" height="306">
<path d="M0 0 C0.64907822 -0.00511093 1.29815643 -0.01022186 1.96690369 -0.01548767 C4.12052557 -0.02942543 6.27382849 -0.02842238 8.42749023 -0.02612305 C9.92764912 -0.03001069 11.4278069 -0.0343455 12.92796326 -0.03910828 C16.07961584 -0.04658162 19.23115647 -0.04627339 22.3828125 -0.04101562 C26.40196531 -0.0352513 30.42065272 -0.05207216 34.43972874 -0.0753603 C37.54290912 -0.09017728 40.64597988 -0.09095804 43.74918938 -0.08785057 C45.22940929 -0.08836085 46.70963583 -0.093543 48.18982124 -0.10366249 C56.13693538 -0.15128068 63.30248075 0.00701565 70.67358398 3.2746582 C71.74866211 3.70004883 72.82374023 4.12543945 73.93139648 4.5637207 C82.93252311 8.75770613 87.79635842 13.95389968 92.11108398 22.8371582 C95.27803392 31.69084868 95.00341303 41.93294517 91.61108398 50.6496582 C88.94792499 56.20424695 85.74997916 61.63352314 81.67358398 66.2746582 C81.01358398 66.2746582 80.35358398 66.2746582 79.67358398 66.2746582 C79.67358398 66.9346582 79.67358398 67.5946582 79.67358398 68.2746582 C77.92358398 70.0012207 77.92358398 70.0012207 75.67358398 71.8996582 C74.93108398 72.53129883 74.18858398 73.16293945 73.42358398 73.8137207 C72.84608398 74.29583008 72.26858398 74.77793945 71.67358398 75.2746582 C73.07052759 79.47299947 75.04640467 82.11056349 78.04858398 85.3371582 C78.81944336 86.17375977 79.59030273 87.01036133 80.38452148 87.87231445 C82.4499528 90.03995994 84.54440427 92.16978419 86.67358398 94.2746582 C88.09202407 92.71376794 89.50825423 91.1508693 90.92358398 89.5871582 C91.71249023 88.71704102 92.50139648 87.84692383 93.31420898 86.95043945 C95.51872105 84.45028918 97.59402104 81.87848071 99.67358398 79.2746582 C101.31954909 77.58754397 102.98595547 75.920096 104.67358398 74.2746582 C105.39545898 73.5115332 106.11733398 72.7484082 106.86108398 71.9621582 C108.67358398 70.2746582 108.67358398 70.2746582 110.67358398 70.2746582 C110.73545898 69.7177832 110.79733398 69.1609082 110.86108398 68.5871582 C112.01535378 65.30192879 114.16747285 63.6668552 116.67358398 61.2746582 C120.3918238 57.74021501 120.3918238 57.74021501 121.67358398 53.0246582 C120.65495008 50.93924801 120.65495008 50.93924801 117.67358398 49.2746582 C118.00358398 47.9546582 118.33358398 46.6346582 118.67358398 45.2746582 C125.0456457 45.24935995 131.41769453 45.23181325 137.78979492 45.21972656 C139.95874516 45.21468929 142.12769199 45.20785929 144.29663086 45.19921875 C147.40926961 45.18712669 150.52186358 45.18142392 153.63452148 45.17700195 C154.60851898 45.17184067 155.58251648 45.16667938 156.58602905 45.16136169 C157.48681183 45.16128616 158.3875946 45.16121063 159.31567383 45.16113281 C160.11065277 45.1589122 160.90563171 45.15669159 161.72470093 45.15440369 C163.67358398 45.2746582 163.67358398 45.2746582 165.67358398 46.2746582 C165.34358398 47.5946582 165.01358398 48.9146582 164.67358398 50.2746582 C163.79057617 50.42161133 162.90756836 50.56856445 161.99780273 50.7199707 C150.59004584 52.85203268 141.76016271 55.99680634 134.43139648 65.25512695 C131.86974979 68.19817437 128.84389767 70.36177492 125.68920898 72.6340332 C123.57722794 74.21625594 123.57722794 74.21625594 122.03295898 76.4777832 C121.58436523 77.07075195 121.13577148 77.6637207 120.67358398 78.2746582 C120.01358398 78.2746582 119.35358398 78.2746582 118.67358398 78.2746582 C118.67358398 78.9346582 118.67358398 79.5946582 118.67358398 80.2746582 C117.06420898 81.82543945 117.06420898 81.82543945 114.92358398 83.5871582 C112.57297753 85.58024235 110.6044004 87.36113768 108.67358398 89.7746582 C106.80202487 92.11410709 104.97055616 93.74958931 102.67358398 95.6496582 C98.90891266 98.84541464 96.8370815 101.85751745 94.67358398 106.2746582 C95.31424805 106.9759082 95.95491211 107.6771582 96.61499023 108.3996582 C104.53154344 117.08309064 104.53154344 117.08309064 108.36108398 121.5246582 C111.2028958 124.81304044 114.23041887 127.84485381 117.38842773 130.8293457 C118.67358398 132.2746582 118.67358398 132.2746582 118.67358398 134.2746582 C119.33358398 134.2746582 119.99358398 134.2746582 120.67358398 134.2746582 C122.04858398 135.63793945 122.04858398 135.63793945 123.67358398 137.5871582 C126.67257568 141.10689532 129.70630019 144.58622323 132.79858398 148.0246582 C133.60553711 148.92700195 134.41249023 149.8293457 135.24389648 150.7590332 C137.58247983 153.18033172 140.03922033 155.18820712 142.67358398 157.2746582 C143.47795898 158.2646582 144.28233398 159.2546582 145.11108398 160.2746582 C147.17060618 162.68580614 148.42171597 163.91139382 150.98608398 165.5246582 C151.87295898 166.1021582 152.75983398 166.6796582 153.67358398 167.2746582 C153.67358398 167.9346582 153.67358398 168.5946582 153.67358398 169.2746582 C154.26655273 169.55567383 154.85952148 169.83668945 155.47045898 170.1262207 C157.46901246 171.16801985 159.11290517 172.321263 160.92358398 173.6496582 C167.11068332 177.62876598 174.58111549 178.73393993 181.67358398 180.2746582 C181.67358398 181.9246582 181.67358398 183.5746582 181.67358398 185.2746582 C175.79968624 187.18360427 169.13091614 186.37385092 163.02246094 186.25244141 C161.42756708 186.22579794 159.83242006 186.21127727 158.23730469 186.20947266 C147.96970125 186.19561049 140.27908015 185.52147448 131.67358398 179.2746582 C130.91811279 178.75637451 130.1626416 178.23809082 129.38427734 177.70410156 C128.81974854 177.23238525 128.25521973 176.76066895 127.67358398 176.2746582 C127.67358398 175.6146582 127.67358398 174.9546582 127.67358398 174.2746582 C126.35358398 173.9446582 125.03358398 173.6146582 123.67358398 173.2746582 C123.67358398 172.6146582 123.67358398 171.9546582 123.67358398 171.2746582 C122.77639648 170.9343457 122.77639648 170.9343457 121.86108398 170.5871582 C119.08997494 168.92449278 118.31533655 167.03280252 116.67358398 164.2746582 C115.02355571 162.92078885 113.35614528 161.58787678 111.67358398 160.2746582 C107.67358398 155.73411766 107.67358398 155.73411766 107.67358398 153.2746582 C107.01358398 153.2746582 106.35358398 153.2746582 105.67358398 153.2746582 C104.15617422 151.57562797 102.70845599 149.81393098 101.29858398 148.0246582 C98.56775808 144.57230974 95.82787553 141.34369862 92.67358398 138.2746582 C87.13889301 132.30733639 87.13889301 132.30733639 86.67358398 128.2746582 C86.01358398 128.2746582 85.35358398 128.2746582 84.67358398 128.2746582 C81.67358398 124.81311974 81.67358398 124.81311974 81.67358398 122.2746582 C81.01358398 122.2746582 80.35358398 122.2746582 79.67358398 122.2746582 C79.67358398 121.6146582 79.67358398 120.9546582 79.67358398 120.2746582 C79.01358398 120.2746582 78.35358398 120.2746582 77.67358398 120.2746582 C77.21983398 119.3671582 76.76608398 118.4596582 76.29858398 117.5246582 C72.5375489 110.88833906 67.06338609 104.66446031 61.67358398 99.2746582 C60.97609815 97.95718496 60.30398442 96.62551627 59.67358398 95.2746582 C58.68358398 95.2746582 57.69358398 95.2746582 56.67358398 95.2746582 C57.79036482 96.94684341 58.91724751 98.61228624 60.04858398 100.2746582 C60.67506836 101.2027832 61.30155273 102.1309082 61.94702148 103.0871582 C62.51678711 103.8090332 63.08655273 104.5309082 63.67358398 105.2746582 C64.33358398 105.2746582 64.99358398 105.2746582 65.67358398 105.2746582 C66.20983398 106.2646582 66.74608398 107.2546582 67.29858398 108.2746582 C68.87911744 111.11053231 70.64146955 113.39881468 72.77612305 115.83496094 C76.5295681 120.81307615 76.50244236 125.24359199 76.40795898 131.30981445 C76.416922 132.34730331 76.42588501 133.38479218 76.43511963 134.45372009 C76.45910642 137.74878896 76.44335972 141.04208692 76.42358398 144.3371582 C76.42503002 147.63533316 76.43497443 150.93319304 76.45489502 154.23130798 C76.46503155 156.27698917 76.46346922 158.32277248 76.44842529 160.36842346 C76.45131233 165.72719171 76.76828158 170.23994099 78.67358398 175.2746582 C82.12478115 177.978843 86.20803813 177.59774128 90.43139648 177.7355957 C92.67358398 178.2746582 92.67358398 178.2746582 93.97827148 180.3137207 C94.20772461 180.96083008 94.43717773 181.60793945 94.67358398 182.2746582 C92.67358398 184.2746582 92.67358398 184.2746582 90.34506226 184.51516724 C88.88612045 184.5085054 88.88612045 184.5085054 87.39770508 184.50170898 C86.29671478 184.50155792 85.19572449 184.50140686 84.06137085 184.50125122 C82.86863556 184.49092865 81.67590027 184.48060608 80.44702148 184.4699707 C79.22906891 184.46714081 78.01111633 184.46431091 76.7562561 184.46139526 C72.85360015 184.45017076 68.95117096 184.42506193 65.04858398 184.3996582 C62.40796229 184.38963134 59.76733701 184.38050499 57.12670898 184.37231445 C50.64225619 184.35022402 44.15793628 184.31672413 37.67358398 184.2746582 C37.29139631 182.61851163 36.95963297 180.95008796 36.67358398 179.2746582 C38.22805952 177.72018267 39.89548684 178.12220953 42.04858398 178.0246582 C45.89617073 177.68646108 45.89617073 177.68646108 48.67358398 175.0246582 C50.33243334 170.46282247 50.81639463 166.15350437 50.98999023 161.31762695 C51.05283203 159.64990234 51.05283203 159.64990234 51.11694336 157.94848633 C51.15625977 156.79799805 51.19557617 155.64750977 51.23608398 154.4621582 C51.30085938 152.70742188 51.30085938 152.70742188 51.36694336 150.91723633 C51.47276677 148.03648789 51.57485224 145.15565697 51.67358398 142.2746582 C33.02161445 140.96245934 14.35919209 141.17539664 -4.32641602 141.2746582 C-4.98641602 139.9546582 -5.64641602 138.6346582 -6.32641602 137.2746582 C-4.58684943 135.53509162 -2.13275381 135.90275435 0.23608398 135.7121582 C1.24799805 135.62836914 2.25991211 135.54458008 3.30249023 135.45825195 C4.08495117 135.39766602 4.86741211 135.33708008 5.67358398 135.2746582 C9.25840518 121.17436151 8.83608267 106.74967427 8.84155273 92.30200195 C8.84477375 90.28666664 8.84813843 88.27133155 8.85163879 86.2559967 C8.85759253 82.05282041 8.85948242 77.84966458 8.85888672 73.64648438 C8.85878493 68.28847115 8.87247175 62.93058992 8.88965893 57.57260799 C8.90082786 53.4176423 8.90280448 49.26270813 8.90227699 45.10772896 C8.9034484 43.13317978 8.9078224 41.15862955 8.91560936 39.18409538 C8.95190785 29.03640696 8.93321594 19.23282517 6.67358398 9.2746582 C1.96384749 7.50850702 -2.35724965 6.7887099 -7.32641602 6.2746582 C-7.95141602 4.3996582 -7.95141602 4.3996582 -8.32641602 2.2746582 C-5.5502309 -0.50152691 -3.88885747 0.01523045 0 0 Z M32.67358398 13.2746582 C32.22773629 15.76272696 32.22773629 15.76272696 32.31713867 18.70239258 C32.31413757 19.83696899 32.31113647 20.97154541 32.30804443 22.14050293 C32.32039124 23.37071167 32.33273804 24.60092041 32.34545898 25.8684082 C32.34733215 27.12600952 32.34920532 28.38361084 32.35113525 29.67932129 C32.35786881 32.34275267 32.37017285 35.00542595 32.39233398 37.66870117 C32.42061664 41.08530759 32.43154524 44.50167601 32.43601608 47.91838837 C32.44116894 51.17259124 32.45570946 54.4267366 32.47045898 57.6809082 C32.47470886 58.91111694 32.47895874 60.14132568 32.4833374 61.40881348 C32.49294495 62.54338989 32.50255249 63.67796631 32.51245117 64.84692383 C32.51927917 65.84904907 32.52610718 66.85117432 32.53314209 67.88366699 C32.51691553 70.2896527 32.51691553 70.2896527 33.67358398 72.2746582 C40.93697782 74.39485791 52.21429907 74.79587217 59.29858398 71.9621582 C64.96683993 68.40068765 67.57308211 61.74352126 69.52124023 55.6027832 C72.25690632 43.35569529 70.54088463 31.09710568 63.92358398 20.4621582 C56.43970007 13.18615995 48.38493266 11.06634172 38.12670898 11.0090332 C35.4183266 11.11123128 35.4183266 11.11123128 32.67358398 13.2746582 Z M32.67358398 84.2746582 C32.51665503 102.43511444 32.51665503 102.43511444 32.98608398 120.5871582 C33.00856201 121.30178223 33.03104004 122.01640625 33.05419922 122.75268555 C33.34524877 128.18693048 34.85691212 131.45798634 38.67358398 135.2746582 C42.96358398 135.6046582 47.25358398 135.9346582 51.67358398 136.2746582 C51.67358398 122.0846582 51.67358398 107.8946582 51.67358398 93.2746582 C52.99358398 93.6046582 54.31358398 93.9346582 55.67358398 94.2746582 C56.33358398 93.6146582 56.99358398 92.9546582 57.67358398 92.2746582 C56.34652655 88.67149619 54.86029588 86.45983207 51.67358398 84.2746582 C45.43961426 83.17546245 38.94924848 83.8272841 32.67358398 84.2746582 Z " fill="#090909" transform="translate(97.326416015625,57.725341796875)"/>
<path d="M0 0 C6.37206172 -0.02529825 12.74411054 -0.04284496 19.11621094 -0.05493164 C21.28516117 -0.05996891 23.454108 -0.06679891 25.62304688 -0.07543945 C28.73568563 -0.08753151 31.8482796 -0.09323428 34.9609375 -0.09765625 C35.934935 -0.10281754 36.9089325 -0.10797882 37.91244507 -0.11329651 C38.81322784 -0.11337204 39.71401062 -0.11344757 40.64208984 -0.11352539 C41.43706879 -0.115746 42.23204773 -0.11796661 43.05111694 -0.12025452 C45 0 45 0 47 1 C46.67 2.32 46.34 3.64 46 5 C44.67548828 5.22042969 44.67548828 5.22042969 43.32421875 5.4453125 C31.91646185 7.57737448 23.08657872 10.72214814 15.7578125 19.98046875 C13.19616581 22.92351617 10.17031368 25.08711672 7.015625 27.359375 C4.90364395 28.94159773 4.90364395 28.94159773 3.359375 31.203125 C2.68648437 32.09257812 2.68648437 32.09257812 2 33 C1.34 33 0.68 33 0 33 C0 33.66 0 34.32 0 35 C-1.609375 36.55078125 -1.609375 36.55078125 -3.75 38.3125 C-6.10060645 40.30558414 -8.06918358 42.08647948 -10 44.5 C-11.87155911 46.83944889 -13.70302782 48.4749311 -16 50.375 C-19.76467132 53.57075644 -21.83650249 56.58285925 -24 61 C-23.03900391 62.051875 -23.03900391 62.051875 -22.05859375 63.125 C-14.14204054 71.80843243 -14.14204054 71.80843243 -10.3125 76.25 C-7.47068819 79.53838224 -4.44316512 82.5701956 -1.28515625 85.5546875 C0 87 0 87 0 89 C0.66 89 1.32 89 2 89 C3.375 90.36328125 3.375 90.36328125 5 92.3125 C7.9989917 95.83223712 11.0327162 99.31156503 14.125 102.75 C14.93195313 103.65234375 15.73890625 104.5546875 16.5703125 105.484375 C18.90889585 107.90567352 21.36563634 109.91354892 24 112 C24.804375 112.99 25.60875 113.98 26.4375 115 C28.4970222 117.41114794 29.74813199 118.63673562 32.3125 120.25 C33.199375 120.8275 34.08625 121.405 35 122 C35 122.66 35 123.32 35 124 C35.59296875 124.28101563 36.1859375 124.56203125 36.796875 124.8515625 C38.79542847 125.89336165 40.43932119 127.0466048 42.25 128.375 C48.43709934 132.35410778 55.9075315 133.45928172 63 135 C63 136.65 63 138.3 63 140 C57.12610225 141.90894607 50.45733216 141.09919272 44.34887695 140.9777832 C42.75398309 140.95113974 41.15883607 140.93661907 39.5637207 140.93481445 C29.29611727 140.92095228 21.60549617 140.24681627 13 134 C12.24452881 133.48171631 11.48905762 132.96343262 10.71069336 132.42944336 C9.86390015 131.7218689 9.86390015 131.7218689 9 131 C9 130.34 9 129.68 9 129 C7.68 128.67 6.36 128.34 5 128 C5 127.34 5 126.68 5 126 C4.401875 125.773125 3.80375 125.54625 3.1875 125.3125 C0.41639096 123.64983458 -0.35824743 121.75814432 -2 119 C-3.65002828 117.64613064 -5.3174387 116.31321858 -7 115 C-11 110.45945946 -11 110.45945946 -11 108 C-11.66 108 -12.32 108 -13 108 C-14.51740976 106.30096977 -15.965128 104.53927277 -17.375 102.75 C-20.1058259 99.29765154 -22.84570846 96.06904042 -26 93 C-31.53469098 87.03267819 -31.53469098 87.03267819 -32 83 C-32.66 83 -33.32 83 -34 83 C-37 79.53846154 -37 79.53846154 -37 77 C-37.66 77 -38.32 77 -39 77 C-39 76.34 -39 75.68 -39 75 C-39.66 75 -40.32 75 -41 75 C-41.680625 73.63875 -41.680625 73.63875 -42.375 72.25 C-44.88557202 67.79487583 -48.21334353 64.01602499 -51.55810547 60.17675781 C-53.6305461 57.77282028 -54.98417846 56.04746463 -56 53 C-55.34 53 -54.68 53 -54 53 C-53.34 53.99 -52.68 54.98 -52 56 C-50.04614933 56.78988145 -50.04614933 56.78988145 -47.875 57.1875 C-46.59625 57.455625 -45.3175 57.72375 -44 58 C-44.33 56.68 -44.66 55.36 -45 54 C-44.175 53.401875 -43.35 52.80375 -42.5 52.1875 C-41.675 51.465625 -40.85 50.74375 -40 50 C-40 47.37886292 -40.31292445 45.49064888 -41 43 C-41.99 43 -42.98 43 -44 43 C-44.66 40.36 -45.32 37.72 -46 35 C-45.29875 35.721875 -44.5975 36.44375 -43.875 37.1875 C-41.94944149 39.12951628 -39.95648989 40.86627213 -37.8125 42.5625 C-35.32166319 44.72122523 -34.12078446 45.97388196 -33 49 C-30.21041811 46.29246463 -27.60231139 43.55924765 -25.125 40.5625 C-22.55143746 37.505981 -19.75393051 35.0180215 -16.671875 32.48828125 C-14.97521514 30.97793685 -13.60078619 29.39992119 -12.1875 27.625 C-11.465625 26.75875 -10.74375 25.8925 -10 25 C-9.34 25 -8.68 25 -8 25 C-7.9071875 24.1646875 -7.9071875 24.1646875 -7.8125 23.3125 C-6.65823021 20.02727058 -4.50611114 18.392197 -2 16 C1.71823981 12.46555681 1.71823981 12.46555681 3 7.75 C1.9813661 5.6645898 1.9813661 5.6645898 -1 4 C-0.67 2.68 -0.34 1.36 0 0 Z " fill="#0B0B0B" transform="translate(216,103)"/>
<path d="M0 0 C1.9375 0.375 1.9375 0.375 4 1 C7.13104735 7.26209471 6.1384065 16.21002649 6.11352539 23.07177734 C6.11367142 24.14116547 6.11381744 25.21055359 6.1139679 26.31234741 C6.11327553 29.82023197 6.1055136 33.32806231 6.09765625 36.8359375 C6.09578928 39.28211437 6.09436669 41.72829162 6.09336853 44.17446899 C6.08956212 50.59463545 6.07974997 57.01477906 6.06866455 63.43493652 C6.05842214 69.9813608 6.05386164 76.52778876 6.04882812 83.07421875 C6.0385967 95.36218342 6.02282514 107.65013312 6.00279331 119.93808556 C6.00050749 121.62538908 6 123.31269493 6 125 C3.51612903 129.74193548 3.51612903 129.74193548 1 131 C11.23 131.33 21.46 131.66 32 132 C32 128.23312136 31.76462683 127.08809695 30 124 C31.32 124.99 32.64 125.98 34 127 C38.29 127.66 42.58 128.32 47 129 C47 114.81 47 100.62 47 86 C49.475 85.505 49.475 85.505 52 85 C49.525 81.535 49.525 81.535 47 78 C47.66 77.67 48.32 77.34 49 77 C49.83905565 78.12073862 50.67107831 79.24674547 51.5 80.375 C51.9640625 81.00148438 52.428125 81.62796875 52.90625 82.2734375 C54 84 54 84 54 86 C54.9590625 86.185625 54.9590625 86.185625 55.9375 86.375 C56.618125 86.58125 57.29875 86.7875 58 87 C58.33 87.66 58.66 88.32 59 89 C58.01 89.99 57.02 90.98 56 92 C55.67 90.68 55.34 89.36 55 88 C54.01 88 53.02 88 52 88 C53.11678083 89.6721852 54.24366352 91.33762803 55.375 93 C56.00148438 93.928125 56.62796875 94.85625 57.2734375 95.8125 C57.84320313 96.534375 58.41296875 97.25625 59 98 C59.66 98 60.32 98 61 98 C61.53625 98.99 62.0725 99.98 62.625 101 C64.20553345 103.83587411 65.96788557 106.12415648 68.10253906 108.56030273 C71.85598412 113.53841795 71.82885837 117.96893379 71.734375 124.03515625 C71.74333801 125.07264511 71.75230103 126.11013397 71.76153564 127.17906189 C71.78552243 130.47413076 71.76977573 133.76742871 71.75 137.0625 C71.75144604 140.36067496 71.76139044 143.65853484 71.78131104 146.95664978 C71.79144757 149.00233096 71.78988523 151.04811428 71.77484131 153.09376526 C71.77772834 158.45253351 72.09469759 162.96528278 74 168 C77.45119717 170.70418479 81.53445414 170.32308307 85.7578125 170.4609375 C88 171 88 171 89.3046875 173.0390625 C89.53414063 173.68617188 89.76359375 174.33328125 90 175 C88 177 88 177 85.67147827 177.24050903 C84.21253647 177.2338472 84.21253647 177.2338472 82.72412109 177.22705078 C81.6231308 177.22689972 80.5221405 177.22674866 79.38778687 177.22659302 C78.19505157 177.21627045 77.00231628 177.20594788 75.7734375 177.1953125 C74.55548492 177.1924826 73.33753235 177.18965271 72.08267212 177.18673706 C68.18001617 177.17551256 64.27758697 177.15040372 60.375 177.125 C57.73437831 177.11497314 55.09375303 177.10584678 52.453125 177.09765625 C45.9686722 177.07556581 39.4843523 177.04206592 33 177 C32.61781233 175.34385343 32.28604898 173.67542976 32 172 C33.55447554 170.44552446 35.22190285 170.84755133 37.375 170.75 C41.22258675 170.41180288 41.22258675 170.41180288 44 167.75 C45.65884936 163.18816426 46.14281065 158.87884617 46.31640625 154.04296875 C46.37924805 152.37524414 46.37924805 152.37524414 46.44335938 150.67382812 C46.48267578 149.52333984 46.52199219 148.37285156 46.5625 147.1875 C46.62727539 145.43276367 46.62727539 145.43276367 46.69335938 143.64257812 C46.79918279 140.76182969 46.90126825 137.88099877 47 135 C28.34803047 133.68780114 9.68560811 133.90073843 -9 134 C-9.66 132.68 -10.32 131.36 -11 130 C-9.26043342 128.26043342 -6.8063378 128.62809614 -4.4375 128.4375 C-3.42558594 128.35371094 -2.41367188 128.26992187 -1.37109375 128.18359375 C-0.58863281 128.12300781 0.19382812 128.06242188 1 128 C4.58482119 113.8997033 4.16249868 99.47501607 4.16796875 85.02734375 C4.17118977 83.01200844 4.17455444 80.99667335 4.17805481 78.9813385 C4.18400854 74.77816221 4.18589843 70.57500637 4.18530273 66.37182617 C4.18520094 61.01381295 4.19888776 55.65593172 4.21607494 50.29794979 C4.22724387 46.14298409 4.2292205 41.98804992 4.22869301 37.83307076 C4.22986442 35.85852158 4.23423842 33.88397135 4.24202538 31.90943718 C4.57207703 16.79830185 4.57207703 16.79830185 2 2 C1.34 1.34 0.68 0.68 0 0 Z " fill="#020202" transform="translate(102,65)"/>
<path d="M0 0 C1.9375 0.375 1.9375 0.375 4 1 C7.13104735 7.26209471 6.1384065 16.21002649 6.11352539 23.07177734 C6.11367142 24.14116547 6.11381744 25.21055359 6.1139679 26.31234741 C6.11327553 29.82023197 6.1055136 33.32806231 6.09765625 36.8359375 C6.09578928 39.28211437 6.09436669 41.72829162 6.09336853 44.17446899 C6.08956212 50.59463545 6.07974997 57.01477906 6.06866455 63.43493652 C6.05842214 69.9813608 6.05386164 76.52778876 6.04882812 83.07421875 C6.0385967 95.36218342 6.02282514 107.65013312 6.00279331 119.93808556 C6.00050749 121.62538908 6 123.31269493 6 125 C3.51612903 129.74193548 3.51612903 129.74193548 1 131 C11.23 131.33 21.46 131.66 32 132 C32 128.23312136 31.76462683 127.08809695 30 124 C31.32 124.99 32.64 125.98 34 127 C38.29 127.66 42.58 128.32 47 129 C47 114.81 47 100.62 47 86 C49.475 85.505 49.475 85.505 52 85 C49.525 81.535 49.525 81.535 47 78 C47.66 77.67 48.32 77.34 49 77 C49.83905565 78.12073862 50.67107831 79.24674547 51.5 80.375 C51.9640625 81.00148438 52.428125 81.62796875 52.90625 82.2734375 C54 84 54 84 54 86 C54.9590625 86.185625 54.9590625 86.185625 55.9375 86.375 C56.618125 86.58125 57.29875 86.7875 58 87 C58.33 87.66 58.66 88.32 59 89 C58.01 89.99 57.02 90.98 56 92 C55.67 90.68 55.34 89.36 55 88 C54.195625 88.185625 53.39125 88.37125 52.5625 88.5625 C51.2940625 88.7790625 51.2940625 88.7790625 50 89 C49.67 88.67 49.34 88.34 49 88 C48.99191315 88.90566711 48.98382629 89.81133423 48.97549438 90.7444458 C48.89756009 99.27868626 48.81027284 107.81276872 48.71247292 116.34680557 C48.66252282 120.73426398 48.61619266 125.12169847 48.578125 129.50927734 C48.54125593 133.74337724 48.49489157 137.97727633 48.44193649 142.21120453 C48.42340116 143.826693 48.40829 145.4422245 48.39665604 147.0577774 C48.37977872 149.32030304 48.35074066 151.58236969 48.31884766 153.84472656 C48.30552399 155.13268127 48.29220032 156.42063599 48.2784729 157.74761963 C48 161 48 161 46 165 C46.33 155.1 46.66 145.2 47 135 C28.33054514 133.79551904 9.6984904 133.90067 -9 134 C-9.66 132.68 -10.32 131.36 -11 130 C-9.26043342 128.26043342 -6.8063378 128.62809614 -4.4375 128.4375 C-3.42558594 128.35371094 -2.41367188 128.26992187 -1.37109375 128.18359375 C-0.58863281 128.12300781 0.19382812 128.06242188 1 128 C4.58482119 113.8997033 4.16249868 99.47501607 4.16796875 85.02734375 C4.17118977 83.01200844 4.17455444 80.99667335 4.17805481 78.9813385 C4.18400854 74.77816221 4.18589843 70.57500637 4.18530273 66.37182617 C4.18520094 61.01381295 4.19888776 55.65593172 4.21607494 50.29794979 C4.22724387 46.14298409 4.2292205 41.98804992 4.22869301 37.83307076 C4.22986442 35.85852158 4.23423842 33.88397135 4.24202538 31.90943718 C4.57207703 16.79830185 4.57207703 16.79830185 2 2 C1.34 1.34 0.68 0.68 0 0 Z " fill="#AAAAAA" transform="translate(102,65)"/>
<path d="M0 0 C2.94789279 2.19110023 4.70721103 3.59680125 5.47201538 7.262146 C5.64177257 10.09813271 5.66565302 12.90120434 5.63671875 15.7421875 C5.65228569 17.30478806 5.65228569 17.30478806 5.66816711 18.8989563 C5.69784099 22.22463991 5.69447786 25.54920803 5.6875 28.875 C5.6964112 32.1933373 5.71245087 35.51137656 5.7389679 38.82962036 C5.753804 40.89196809 5.75773331 42.95443179 5.74919128 45.01681519 C5.77043878 50.39429493 6.08761825 54.94794415 8 60 C11.45119717 62.70418479 15.53445414 62.32308307 19.7578125 62.4609375 C22 63 22 63 23.3046875 65.0390625 C23.64886719 66.00972656 23.64886719 66.00972656 24 67 C22 69 22 69 19.67147827 69.24050903 C18.6988504 69.23606781 17.72622253 69.23162659 16.72412109 69.22705078 C15.6231308 69.22689972 14.5221405 69.22674866 13.38778687 69.22659302 C12.19505157 69.21627045 11.00231628 69.20594788 9.7734375 69.1953125 C8.55548492 69.1924826 7.33753235 69.18965271 6.08267212 69.18673706 C2.18001617 69.17551256 -1.72241303 69.15040372 -5.625 69.125 C-8.26562169 69.11497314 -10.90624697 69.10584678 -13.546875 69.09765625 C-20.0313278 69.07556581 -26.5156477 69.04206592 -33 69 C-33.38218767 67.34385343 -33.71395102 65.67542976 -34 64 C-32.45462264 62.45462264 -30.83063405 62.84821236 -28.6875 62.75 C-24.91350815 62.39543707 -24.2551803 62.2551803 -21.4375 59.4375 C-20.963125 58.633125 -20.48875 57.82875 -20 57 C-20.2676756 60.30133235 -20.5603835 61.62503298 -23.125 63.8125 C-26.58445601 65.24140574 -29.29159398 65.21814153 -33 65 C-33 65.66 -33 66.32 -33 67 C-14.85 67 3.3 67 22 67 C22 66.34 22 65.68 22 65 C20.865625 65.061875 19.73125 65.12375 18.5625 65.1875 C13.71742266 65.1961365 9.40424373 63.99196086 5 62 C1.76708776 58.76708776 1.87444796 55.44329476 1.81054688 51.01953125 C1.79382935 50.03170654 1.77711182 49.04388184 1.7598877 48.02612305 C1.74631226 46.96562744 1.73273682 45.90513184 1.71875 44.8125 C1.70034058 43.71784424 1.68193115 42.62318848 1.66296387 41.49536133 C1.58434228 36.81178485 1.51657552 32.12806499 1.44775391 27.44433594 C1.39597942 24.02531954 1.33874791 20.60642415 1.28125 17.1875 C1.26767456 16.12700439 1.25409912 15.06650879 1.2401123 13.97387695 C1.22339478 12.98605225 1.20667725 11.99822754 1.18945312 10.98046875 C1.17692505 10.11317139 1.16439697 9.24587402 1.15148926 8.35229492 C1.00693016 6.10761007 0.58261707 4.16467229 0 2 C0 1.34 0 0.68 0 0 Z " fill="#858585" transform="translate(168,173)"/>
<path d="M0 0 C0.64907822 -0.00511093 1.29815643 -0.01022186 1.96690369 -0.01548767 C4.12052557 -0.02942543 6.27382849 -0.02842238 8.42749023 -0.02612305 C9.92764912 -0.03001069 11.4278069 -0.0343455 12.92796326 -0.03910828 C16.07961584 -0.04658162 19.23115647 -0.04627339 22.3828125 -0.04101562 C26.40196531 -0.0352513 30.42065272 -0.05207216 34.43972874 -0.0753603 C37.54290912 -0.09017728 40.64597988 -0.09095804 43.74918938 -0.08785057 C45.22940929 -0.08836085 46.70963583 -0.093543 48.18982124 -0.10366249 C56.18562898 -0.15157245 63.24792767 0.01023444 70.67358398 3.2746582 C71.66358398 4.2646582 71.66358398 4.2646582 72.67358398 5.2746582 C71.82094467 5.17188316 71.82094467 5.17188316 70.95108032 5.06703186 C63.77966897 4.26937989 56.65818581 4.06096619 49.44702148 3.95825195 C48.21819244 3.93747086 46.9893634 3.91668976 45.72329712 3.89527893 C41.83177813 3.8303537 37.94019674 3.77116582 34.04858398 3.7121582 C31.39623401 3.66891865 28.74389014 3.6253027 26.09155273 3.58129883 C19.61896077 3.47473147 13.14630794 3.37286353 6.67358398 3.2746582 C6.67358398 3.9346582 6.67358398 4.5946582 6.67358398 5.2746582 C6.01358398 5.2746582 5.35358398 5.2746582 4.67358398 5.2746582 C4.67358398 5.9346582 4.67358398 6.5946582 4.67358398 7.2746582 C0.71358398 6.9446582 -3.24641602 6.6146582 -7.32641602 6.2746582 C-7.65641602 4.9546582 -7.98641602 3.6346582 -8.32641602 2.2746582 C-5.5502309 -0.50152691 -3.88885747 0.01523045 0 0 Z " fill="#A1A1A1" transform="translate(97.326416015625,57.725341796875)"/>
<path d="M0 0 C0.66 0 1.32 0 2 0 C3.2890625 1.4609375 3.2890625 1.4609375 4.625 3.375 C5.07101563 4.00148437 5.51703125 4.62796875 5.9765625 5.2734375 C7 7 7 7 7 9 C7.639375 9.12375 8.27875 9.2475 8.9375 9.375 C9.618125 9.58125 10.29875 9.7875 11 10 C11.33 10.66 11.66 11.32 12 12 C11.01 12.99 10.02 13.98 9 15 C8.67 13.68 8.34 12.36 8 11 C6.7934375 11.2784375 6.7934375 11.2784375 5.5625 11.5625 C4.716875 11.706875 3.87125 11.85125 3 12 C2.67 11.67 2.34 11.34 2 11 C1.99191315 11.90566711 1.98382629 12.81133423 1.97549438 13.7444458 C1.89756009 22.27868626 1.81027284 30.81276872 1.71247292 39.34680557 C1.66252282 43.73426398 1.61619266 48.12169847 1.578125 52.50927734 C1.54125593 56.74337724 1.49489157 60.97727633 1.44193649 65.21120453 C1.42340116 66.826693 1.40829 68.4422245 1.39665604 70.0577774 C1.37977872 72.32030304 1.35074066 74.58236969 1.31884766 76.84472656 C1.30552399 78.13268127 1.29220032 79.42063599 1.2784729 80.74761963 C1 84 1 84 -1 88 C-0.67 78.1 -0.34 68.2 0 58 C-6.6 57.67 -13.2 57.34 -20 57 C-20 56.67 -20 56.34 -20 56 C-13.73 56 -7.46 56 -1 56 C-1 55.01 -1 54.02 -1 53 C-1.90363281 52.96261719 -2.80726563 52.92523438 -3.73828125 52.88671875 C-4.91777344 52.82097656 -6.09726563 52.75523437 -7.3125 52.6875 C-9.07013672 52.60048828 -9.07013672 52.60048828 -10.86328125 52.51171875 C-14.0983686 51.98395232 -15.08684881 51.57619276 -17 49 C-16.67 48.34 -16.34 47.68 -16 47 C-15.01 47.99 -14.02 48.98 -13 50 C-8.71 50.66 -4.42 51.32 0 52 C0 37.81 0 23.62 0 9 C1.65 8.67 3.3 8.34 5 8 C4.6390625 7.50628906 4.278125 7.01257813 3.90625 6.50390625 C3.4421875 5.86324219 2.978125 5.22257813 2.5 4.5625 C2.0359375 3.92441406 1.571875 3.28632813 1.09375 2.62890625 C0 1 0 1 0 0 Z " fill="#D0D0D0" transform="translate(149,142)"/>
<path d="M0 0 C0.94101563 0.02964844 1.88203125 0.05929688 2.8515625 0.08984375 C5.25 0.25 5.25 0.25 9 1 C10.12109375 3.0234375 10.12109375 3.0234375 11 5 C11.598125 5.12375 12.19625 5.2475 12.8125 5.375 C15.69573245 6.1987807 17.1880638 7.85621322 19.02734375 10.16796875 C20.764703 13.4403442 20.31280879 16.37141801 20 20 C17.97751201 17.97751201 17.47442148 16.83478977 16.4375 14.25 C13.3897181 7.9952237 7.87206437 5.1701003 1.625 2.625 C-4.20274826 1.62021582 -10.33463569 1.11154523 -16 3 C-15.67 22.47 -15.34 41.94 -15 62 C-15.66 61.67 -16.32 61.34 -17 61 C-17.06943717 53.3419668 -17.12277913 45.68396613 -17.15543652 38.02569008 C-17.17110864 34.46981329 -17.19237444 30.91415148 -17.22631836 27.35839844 C-17.26507759 23.27276518 -17.27969633 19.18735859 -17.29296875 15.1015625 C-17.30845261 13.82133209 -17.32393646 12.54110168 -17.33988953 11.22207642 C-17.34011612 10.04100311 -17.34034271 8.85992981 -17.34057617 7.64306641 C-17.34723801 6.59937897 -17.35389984 5.55569153 -17.36076355 4.4803772 C-17.24171158 3.66185272 -17.12265961 2.84332825 -17 2 C-11.9242957 -1.38380287 -5.94131098 -0.19976208 0 0 Z " fill="#B7B7B7" transform="translate(146,68)"/>
<path d="M0 0 C5.22362948 2.14360605 7.25887828 6.27789956 10 11 C10.34675781 11.59683594 10.69351563 12.19367188 11.05078125 12.80859375 C14.63264118 20.43065589 14.2193792 30.58700862 12.015625 38.5625 C10.00163182 43.63477913 8.05796484 47.28886976 4 51 C4.75 44.375 4.75 44.375 7 41 C7.66 41 8.32 41 9 41 C8.814375 39.9275 8.62875 38.855 8.4375 37.75 C8.03598223 34.30841912 8.19627791 33.15128447 9 30 C9.72540364 20.10940034 8.15098872 14.37035668 3 6 C1.9849911 4.00757511 0.98126556 2.00925805 0 0 Z " fill="#5D5D5D" transform="translate(178,67)"/>
<path d="M0 0 C0 3 0 3 -1.4609375 4.6484375 C-2.09257812 5.21820313 -2.72421875 5.78796875 -3.375 6.375 C-6.19986568 9.0629025 -7.95006315 11.15023156 -9 15 C-9.66 15 -10.32 15 -11 15 C-11.226875 15.556875 -11.45375 16.11375 -11.6875 16.6875 C-13.35896766 19.63246684 -15.55276352 21.68156544 -18 24 C-20.93563236 22.04291176 -21.90284638 20.91547018 -23.6875 18 C-24.12449219 17.29875 -24.56148437 16.5975 -25.01171875 15.875 C-26 14 -26 14 -26 12 C-26.99 12 -27.98 12 -29 12 C-29.66 9.36 -30.32 6.72 -31 4 C-30.29875 4.721875 -29.5975 5.44375 -28.875 6.1875 C-26.94944149 8.12951628 -24.95648989 9.86627213 -22.8125 11.5625 C-20.32166319 13.72122523 -19.12078446 14.97388196 -18 18 C-15.21041811 15.29246463 -12.60231139 12.55924765 -10.125 9.5625 C-7.08399838 5.95131057 -3.66580534 2.96084277 0 0 Z " fill="#8B8B8B" transform="translate(201,134)"/>
<path d="M0 0 C6.37206172 -0.02529825 12.74411054 -0.04284496 19.11621094 -0.05493164 C21.28516117 -0.05996891 23.454108 -0.06679891 25.62304688 -0.07543945 C28.73568563 -0.08753151 31.8482796 -0.09323428 34.9609375 -0.09765625 C35.934935 -0.10281754 36.9089325 -0.10797882 37.91244507 -0.11329651 C38.81322784 -0.11337204 39.71401062 -0.11344757 40.64208984 -0.11352539 C41.43706879 -0.115746 42.23204773 -0.11796661 43.05111694 -0.12025452 C45 0 45 0 47 1 C46.67 2.32 46.34 3.64 46 5 C41.38 5.66 36.76 6.32 32 7 C32.33 5.68 32.66 4.36 33 3 C22.11 2.67 11.22 2.34 0 2 C-0.33 2.66 -0.66 3.32 -1 4 C-0.67 2.68 -0.34 1.36 0 0 Z " fill="#8C8C8C" transform="translate(216,103)"/>
<path d="M0 0 C1.1055189 0.93590504 2.20935453 1.87379858 3.3125 2.8125 C3.92738281 3.33457031 4.54226562 3.85664063 5.17578125 4.39453125 C8.51952278 7.3373102 8.51952278 7.3373102 10 9 C10 9.66 10 10.32 10 11 C10.66 11 11.32 11 12 11 C13.55078125 12.57421875 13.55078125 12.57421875 15.3125 14.6875 C18.08499308 17.95300964 20.92600859 21.01915985 24 24 C23.67 24.66 23.34 25.32 23 26 C22.443125 25.38125 21.88625 24.7625 21.3125 24.125 C18.93354822 21.93893621 17.03642904 21.01214301 14 20 C14 19.34 14 18.68 14 18 C13.01 18 12.02 18 11 18 C11 18.66 11 19.32 11 20 C11.66 20.33 12.32 20.66 13 21 C13 21.99 13 22.98 13 24 C11.68 23.34 10.36 22.68 9 22 C9 18 9 18 11 15 C10.34 15 9.68 15 9 15 C8.814375 14.154375 8.62875 13.30875 8.4375 12.4375 C6.76130525 8.42920821 4.63546563 6.39213621 1.4609375 3.515625 C0 2 0 2 0 0 Z " fill="#757575" transform="translate(206,181)"/>
<path d="M0 0 C2.31 0.33 4.62 0.66 7 1 C7 1.66 7 2.32 7 3 C15.9119526 3.84182213 24.80433167 4.27769532 33.75 4.5625 C35.03132813 4.60568359 36.31265625 4.64886719 37.6328125 4.69335938 C40.75513066 4.79821334 43.87751121 4.90038018 47 5 C47 4.01 47 3.02 47 2 C45.35 2 43.7 2 42 2 C42 1.67 42 1.34 42 1 C43.98 1 45.96 1 48 1 C48 2.65 48 4.3 48 6 C44.13617256 7.2649324 40.28440274 7.11826742 36.26953125 7.0546875 C35.51967453 7.04293488 34.76981781 7.03118225 33.99723816 7.01907349 C32.4110984 6.99038977 30.82501811 6.9582355 29.23901367 6.92285156 C27.63046332 6.89113048 26.02167079 6.86985064 24.4128418 6.859375 C7.25775472 6.74654738 7.25775472 6.74654738 0 1 C0 0.67 0 0.34 0 0 Z " fill="#D7D7D7" transform="translate(231,237)"/>
<path d="M0 0 C0.66 0.33 1.32 0.66 2 1 C-2.75 5 -2.75 5 -5 5 C-5.33 5.99 -5.66 6.98 -6 8 C-14.17367067 8.4485551 -19.97563746 8.40744316 -27 4 C-27 3.67 -27 3.34 -27 3 C-26.09290283 3.02356567 -26.09290283 3.02356567 -25.16748047 3.04760742 C-22.40341704 3.1103188 -19.63950379 3.14910411 -16.875 3.1875 C-15.92367187 3.21263672 -14.97234375 3.23777344 -13.9921875 3.26367188 C-8.43533593 3.32155575 -4.91253142 2.86433541 0 0 Z " fill="#777777" transform="translate(158,127)"/>
<path d="M0 0 C2.7766234 2.7766234 2.58472057 5.01261502 3.0625 8.875 C3.59429067 13.53189395 3.59429067 13.53189395 4.6015625 18.09375 C5.15742582 20.7531745 4.76220339 22.95556069 4.3125 25.625 C4.16425781 26.58664063 4.01601562 27.54828125 3.86328125 28.5390625 C3 31 3 31 1.02734375 32.140625 C0.35832031 32.42421875 -0.31070313 32.7078125 -1 33 C-2.76727858 36.0334467 -2.76727858 36.0334467 -4 39 C-4.66 38.67 -5.32 38.34 -6 38 C-5.66226563 37.40574219 -5.32453125 36.81148437 -4.9765625 36.19921875 C1.53181194 24.10417608 1.15344983 13.29584735 0 0 Z " fill="#8B8B8B" transform="translate(166,88)"/>
<path d="M0 0 C4.20225833 2.10112917 6.54570088 4.72396031 9.44140625 8.2890625 C10.98254509 9.98083897 12.44279902 11.10316951 14.375 12.3125 C15.24125 12.869375 16.1075 13.42625 17 14 C17 14.66 17 15.32 17 16 C18.32 16.66 19.64 17.32 21 18 C21 18.33 21 18.66 21 19 C19.02 19 17.04 19 15 19 C14.67 17.68 14.34 16.36 14 15 C13.41734375 14.89300781 12.8346875 14.78601563 12.234375 14.67578125 C9.69971065 13.90917822 8.26645773 12.8894248 6.25 11.1875 C5.32960937 10.43533203 5.32960937 10.43533203 4.390625 9.66796875 C3 8 3 8 3 4 C2.01 3.34 1.02 2.68 0 2 C0 1.34 0 0.68 0 0 Z " fill="#565656" transform="translate(234,211)"/>
<path d="M0 0 C0.66 0 1.32 0 2 0 C2.66 0.99 3.32 1.98 4 3 C5.95385067 3.78988145 5.95385067 3.78988145 8.125 4.1875 C10.043125 4.5896875 10.043125 4.5896875 12 5 C11.67 3.68 11.34 2.36 11 1 C11.66 1 12.32 1 13 1 C13.33 2.65 13.66 4.3 14 6 C13.01 6.495 13.01 6.495 12 7 C12.65585189 10.60992379 12.65585189 10.60992379 14 14 C13.34 14.66 12.68 15.32 12 16 C7.28006804 10.94783982 3.15267299 6.17398461 0 0 Z " fill="#3C3C3C" transform="translate(160,156)"/>
<path d="M0 0 C4.62 0 9.24 0 14 0 C14 0.99 14 1.98 14 3 C0.14 3 -13.72 3 -28 3 C-28 2.67 -28 2.34 -28 2 C-18.76 2 -9.52 2 0 2 C0 1.34 0 0.68 0 0 Z " fill="#4E4E4E" transform="translate(134,195)"/>
<path d="M0 0 C5.625 2.25 5.625 2.25 7.8125 5.625 C8.44091797 6.57246094 8.44091797 6.57246094 9.08203125 7.5390625 C9.38496094 8.02117187 9.68789062 8.50328125 10 9 C9.67 9.66 9.34 10.32 9 11 C8.01 11 7.02 11 6 11 C5.34 9.68 4.68 8.36 4 7 C3.34 7 2.68 7 2 7 C2.33 8.32 2.66 9.64 3 11 C2.34 11 1.68 11 1 11 C1 15.29 1 19.58 1 24 C0.67 24 0.34 24 0 24 C0 16.08 0 8.16 0 0 Z " fill="#303030" transform="translate(150,152)"/>
<path d="M0 0 C0 4.90065495 -1.54653076 8.4385235 -4.83984375 11.9765625 C-10.65824523 17.24237836 -10.65824523 17.24237836 -15 18 C-13.96905133 15.42262834 -13.4891374 14.23715753 -10.9375 13 C-10.298125 12.67 -9.65875 12.34 -9 12 C-8.7834375 11.1028125 -8.7834375 11.1028125 -8.5625 10.1875 C-7.70876895 6.86743482 -5.46860428 5.29227541 -3 3 C-2.401875 2.401875 -1.80375 1.80375 -1.1875 1.1875 C-0.795625 0.795625 -0.40375 0.40375 0 0 Z " fill="#7F7F7F" transform="translate(217,116)"/>
<path d="M0 0 C0 3 0 3 -2 6 C-2.66 6 -3.32 6 -4 6 C-4 6.66 -4 7.32 -4 8 C-5.75 9.7265625 -5.75 9.7265625 -8 11.625 C-8.7425 12.25664062 -9.485 12.88828125 -10.25 13.5390625 C-10.8275 14.02117187 -11.405 14.50328125 -12 15 C-11.67 16.65 -11.34 18.3 -11 20 C-12.32 19.01 -13.64 18.02 -15 17 C-13.49786831 10.84126006 -10.2806303 6.24187361 -5.05078125 2.66796875 C-3.3994665 1.72005379 -1.70302864 0.85151432 0 0 Z " fill="#696969" transform="translate(181,118)"/>
<path d="M0 0 C2.475 0.495 2.475 0.495 5 1 C5.33 1.99 5.66 2.98 6 4 C6.5775 4.103125 7.155 4.20625 7.75 4.3125 C10.64244719 5.19630331 12.1671414 6.82991625 14.02734375 9.16796875 C15.764703 12.4403442 15.31280879 15.37141801 15 19 C12.97751201 16.97751201 12.47442148 15.83478977 11.4375 13.25 C9.26679604 8.66740275 6.16295847 6.76431049 1.828125 4.32421875 C1.22484375 3.88722656 0.6215625 3.45023437 0 3 C0 2.01 0 1.02 0 0 Z " fill="#696969" transform="translate(151,69)"/>
<path d="M0 0 C0.66 0 1.32 0 2 0 C3.2890625 1.4609375 3.2890625 1.4609375 4.625 3.375 C5.29402344 4.31472656 5.29402344 4.31472656 5.9765625 5.2734375 C7 7 7 7 7 9 C7.639375 9.12375 8.27875 9.2475 8.9375 9.375 C9.618125 9.58125 10.29875 9.7875 11 10 C11.33 10.66 11.66 11.32 12 12 C11.01 12.99 10.02 13.98 9 15 C8.67 13.68 8.34 12.36 8 11 C6.7934375 11.2784375 6.7934375 11.2784375 5.5625 11.5625 C4.716875 11.706875 3.87125 11.85125 3 12 C2.67 11.67 2.34 11.34 2 11 C1.67 18.26 1.34 25.52 1 33 C0.67 33 0.34 33 0 33 C0 25.08 0 17.16 0 9 C1.65 8.67 3.3 8.34 5 8 C4.6390625 7.50628906 4.278125 7.01257813 3.90625 6.50390625 C3.4421875 5.86324219 2.978125 5.22257813 2.5 4.5625 C2.0359375 3.92441406 1.571875 3.28632813 1.09375 2.62890625 C0 1 0 1 0 0 Z " fill="#C9C9C9" transform="translate(149,142)"/>
<path d="M0 0 C0.66 0.33 1.32 0.66 2 1 C-1.02518452 5.34048214 -4.65565424 8.17014888 -8.87890625 11.25390625 C-11.0817668 12.92569507 -11.0817668 12.92569507 -12.65234375 15.21484375 C-13.09707031 15.80394531 -13.54179687 16.39304688 -14 17 C-14.66 17 -15.32 17 -16 17 C-16 17.66 -16 18.32 -16 19 C-16.66 18.67 -17.32 18.34 -18 18 C-17.8125 15.6875 -17.8125 15.6875 -17 13 C-12.96551724 10 -12.96551724 10 -10 10 C-9.67 9.01 -9.34 8.02 -9 7 C-7.34928604 5.97388051 -5.68029994 4.97691857 -4 4 C-2.63015802 2.70420353 -1.2848951 1.38007251 0 0 Z " fill="#888888" transform="translate(232,119)"/>
<path d="M0 0 C4.95 0.99 4.95 0.99 10 2 C10 2.66 10 3.32 10 4 C11.65 4 13.3 4 15 4 C15 4.66 15 5.32 15 6 C9.158256 6.35050464 5.1468192 6.16727335 0 3 C0 2.01 0 1.02 0 0 Z " fill="#222222" transform="translate(263,235)"/>
<path d="M0 0 C0.99 0.309375 1.98 0.61875 3 0.9375 C6.97731122 2.08433207 10.88767379 2.56712356 15 3 C15 3.66 15 4.32 15 5 C9.39 5 3.78 5 -2 5 C-2 4.34 -2 3.68 -2 3 C-1.34 3 -0.68 3 0 3 C0 2.01 0 1.02 0 0 Z " fill="#1A1A1A" transform="translate(175,235)"/>
<path d="M0 0 C1.16406323 1.16406323 2.32754865 2.32870939 3.48828125 3.49609375 C4.53794602 4.5403339 5.59871848 5.57347976 6.66796875 6.59765625 C8.14814809 8.02861348 9.57767678 9.51152221 11 11 C11 11.66 11 12.32 11 13 C6.70917714 12.5232419 4.67464645 10.23772992 2 7 C1.05540096 4.66030083 0.53543468 2.48246989 0 0 Z " fill="#6C6C6C" transform="translate(191,164)"/>
<path d="M0 0 C1.98 0 3.96 0 6 0 C6.97477898 3.72188336 7.12816587 5.64248468 5.8125 9.3125 C4 12 4 12 1.8125 12.875 C0.9153125 12.936875 0.9153125 12.936875 0 13 C0.7734375 11.39125 0.7734375 11.39125 1.5625 9.75 C2.56580618 7.40737472 3.02112401 6.26052946 2.8125 3.6875 C2.01622257 1.79598895 2.01622257 1.79598895 0 0 Z " fill="#484848" transform="translate(216,107)"/>
<path d="M0 0 C0.33 0 0.66 0 1 0 C1.049377 4.52065428 1.08570823 9.04115217 1.10986328 13.56201172 C1.11993118 15.10045098 1.13358646 16.63887107 1.15087891 18.17724609 C1.17509317 20.38644133 1.18647491 22.59538395 1.1953125 24.8046875 C1.20563507 25.49432587 1.21595764 26.18396423 1.22659302 26.89450073 C1.22699478 28.59800906 1.12191026 30.30085943 1 32 C0.34 32.66 -0.32 33.32 -1 34 C-1.33 32.35 -1.66 30.7 -2 29 C-1.34 29 -0.68 29 0 29 C0 19.43 0 9.86 0 0 Z " fill="#131313" transform="translate(151,197)"/>
<path d="M0 0 C0.80308594 -0.02578125 1.60617188 -0.0515625 2.43359375 -0.078125 C5.05662642 0.32615894 5.91061639 1.23162131 7.5625 3.25 C7.2325 4.24 6.9025 5.23 6.5625 6.25 C6.2325 5.26 5.9025 4.27 5.5625 3.25 C-1.3675 2.92 -8.2975 2.59 -15.4375 2.25 C-15.4375 1.92 -15.4375 1.59 -15.4375 1.25 C-10.30204471 0.63811597 -5.17130002 0.15232106 0 0 Z " fill="#232323" transform="translate(145.4375,138.75)"/>
<path d="M0 0 C1.32 0.33 2.64 0.66 4 1 C3.59007812 1.47050781 3.18015625 1.94101563 2.7578125 2.42578125 C1.94957031 3.35970703 1.94957031 3.35970703 1.125 4.3125 C0.59132812 4.92738281 0.05765625 5.54226562 -0.4921875 6.17578125 C-2.1640447 8.13498212 -2.1640447 8.13498212 -4 11 C-4.66 11 -5.32 11 -6 11 C-6.33 9.68 -6.66 8.36 -7 7 C-5.68 6.34 -4.36 5.68 -3 5 C-3 4.34 -3 3.68 -3 3 C-2.01 3 -1.02 3 0 3 C0 2.01 0 1.02 0 0 Z " fill="#727272" transform="translate(195,153)"/>
<path d="M0 0 C0.33 0 0.66 0 1 0 C1 4.29 1 8.58 1 13 C1.66 13 2.32 13 3 13 C3 14.65 3 16.3 3 18 C2.01 17.67 1.02 17.34 0 17 C-2.20766894 11.98257058 -1.29750629 5.19002515 0 0 Z " fill="#434343" transform="translate(129,173)"/>
<path d="M0 0 C0.66 0 1.32 0 2 0 C1.51675181 5.15464734 -1.18610761 8.81550319 -4 13 C-5.08784335 9.68604014 -5.07262544 9.16419665 -3.5625 5.75 C-3.046875 4.8425 -2.53125 3.935 -2 3 C-1.34 3 -0.68 3 0 3 C0 2.01 0 1.02 0 0 Z " fill="#7B7B7B" transform="translate(187,105)"/>
<path d="M0 0 C3.465 1.98 3.465 1.98 7 4 C7 4.66 7 5.32 7 6 C8.32 6.66 9.64 7.32 11 8 C11 8.33 11 8.66 11 9 C9.02 9 7.04 9 5 9 C4.54625 8.030625 4.0925 7.06125 3.625 6.0625 C2.34213779 2.92920418 2.34213779 2.92920418 0 2 C0 1.34 0 0.68 0 0 Z " fill="#8A8A8A" transform="translate(244,221)"/>
<path d="M0 0 C2.31 0.33 4.62 0.66 7 1 C7 1.66 7 2.32 7 3 C10.96 3.33 14.92 3.66 19 4 C19 4.33 19 4.66 19 5 C11.92290974 6.49224659 7.75973286 6.02910374 1.6171875 2.12890625 C1.08351562 1.75636719 0.54984375 1.38382813 0 1 C0 0.67 0 0.34 0 0 Z " fill="#9A9A9A" transform="translate(231,237)"/>
<path d="M0 0 C1.4370809 -0.05422947 2.87475462 -0.09289723 4.3125 -0.125 C5.11300781 -0.14820313 5.91351563 -0.17140625 6.73828125 -0.1953125 C9 0 9 0 12 2 C11 3 11 3 7.6875 3.125 C4.85351237 3.02893262 2.66404901 2.85249568 0 2 C0 1.34 0 0.68 0 0 Z " fill="#252525" transform="translate(90,60)"/>
<path d="M0 0 C0.66 0 1.32 0 2 0 C2.433125 0.61875 2.86625 1.2375 3.3125 1.875 C5.31219438 4.39313367 6.98404073 5.02185105 10 6 C9.67 7.32 9.34 8.64 9 10 C8.34 10 7.68 10 7 10 C5.2734375 8.06640625 5.2734375 8.06640625 3.375 5.5625 C2.74335938 4.73878906 2.11171875 3.91507813 1.4609375 3.06640625 C0 1 0 1 0 0 Z " fill="#878787" transform="translate(196,201)"/>
<path d="M0 0 C3 3 6 6 9 9 C8.67 9.66 8.34 10.32 8 11 C7.34 10.34 6.68 9.68 6 9 C4.68 8.67 3.36 8.34 2 8 C1.34 5.36 0.68 2.72 0 0 Z " fill="#8B8B8B" transform="translate(170,138)"/>
<path d="M0 0 C2 0 2 0 3.65625 1.64453125 C4.56890625 2.71767578 4.56890625 2.71767578 5.5 3.8125 C6.41265625 4.87404297 6.41265625 4.87404297 7.34375 5.95703125 C9 8 9 8 11 11 C9.68 10.67 8.36 10.34 7 10 C7 9.34 7 8.68 7 8 C6.401875 7.79375 5.80375 7.5875 5.1875 7.375 C2.18981233 5.49073918 1.38638224 3.18867916 0 0 Z " fill="#CFCFCF" transform="translate(214,221)"/>
<path d="M0 0 C0.66 0 1.32 0 2 0 C1.52498242 2.21674869 0.9801301 4.03857099 -0.0625 6.0625 C-1.21778046 8.09134681 -1.21778046 8.09134681 -1 11 C-1.99 10.01 -2.98 9.02 -4 8 C-2.25 2.25 -2.25 2.25 0 0 Z " fill="#828282" transform="translate(170,127)"/>
<path d="M0 0 C0.99 0 1.98 0 3 0 C7 6.625 7 6.625 7 10 C4 9 4 9 2.375 6.125 C1 3 1 3 0 0 Z " fill="#A5A5A5" transform="translate(160,163)"/>
<path d="M0 0 C0 0.33 0 0.66 0 1 C-3.63 1 -7.26 1 -11 1 C-11 0.34 -11 -0.32 -11 -1 C-3.57142857 -2.42857143 -3.57142857 -2.42857143 0 0 Z " fill="#171717" transform="translate(146,239)"/>
<path d="M0 0 C2.9375 1.125 2.9375 1.125 6 3 C6.875 6.1875 6.875 6.1875 7 9 C6.01 9.495 6.01 9.495 5 10 C5 8.68 5 7.36 5 6 C4.34 6 3.68 6 3 6 C0 2.53846154 0 2.53846154 0 0 Z " fill="#909090" transform="translate(179,180)"/>
<path d="M0 0 C3.465 1.98 3.465 1.98 7 4 C6.67 5.32 6.34 6.64 6 8 C5.34 8 4.68 8 4 8 C4 7.34 4 6.68 4 6 C3.34 6 2.68 6 2 6 C1.34 4.02 0.68 2.04 0 0 Z " fill="#848484" transform="translate(173,172)"/>
<path d="M0 0 C1.98 0.66 3.96 1.32 6 2 C6.33 4.31 6.66 6.62 7 9 C4.03595495 6.19195732 1.55500981 3.81684226 0 0 Z " fill="#828282" transform="translate(164,161)"/>
<path d="M0 0 C3 3 6 6 9 9 C6.75 8.875 6.75 8.875 4 8 C0 2.91891892 0 2.91891892 0 0 Z " fill="#333333" transform="translate(175,146)"/>
<path d="M0 0 C0.99 0 1.98 0 3 0 C4.33333333 2.66666667 5.66666667 5.33333333 7 8 C5 7 3 6 1 5 C0.375 2.4375 0.375 2.4375 0 0 Z " fill="#666666" transform="translate(224,229)"/>
<path d="M0 0 C4.95 0.99 4.95 0.99 10 2 C10 2.33 10 2.66 10 3 C5.545 3.495 5.545 3.495 1 4 C0.67 2.68 0.34 1.36 0 0 Z " fill="#888888" transform="translate(263,235)"/>
<path d="M0 0 C0.66 0 1.32 0 2 0 C3.2890625 1.53125 3.2890625 1.53125 4.625 3.5 C5.07101563 4.1496875 5.51703125 4.799375 5.9765625 5.46875 C6.31429687 5.9740625 6.65203125 6.479375 7 7 C6.67 7.66 6.34 8.32 6 9 C5.01 9 4.02 9 3 9 C2.01 6.03 1.02 3.06 0 0 Z " fill="#9C9C9C" transform="translate(153,154)"/>
<path d="M0 0 C0.99 0.33 1.98 0.66 3 1 C3.33 1.99 3.66 2.98 4 4 C3.01 4.33 2.02 4.66 1 5 C1.33 6.32 1.66 7.64 2 9 C1.34 9 0.68 9 0 9 C0 6.03 0 3.06 0 0 Z " fill="#1A1A1A" transform="translate(151,154)"/>
<path d="M0 0 C3.7952131 1.49097658 5.61042731 3.75700849 8 7 C7.67 7.66 7.34 8.32 7 9 C6.01 9 5.02 9 4 9 C3.525625 7.88625 3.05125 6.7725 2.5625 5.625 C1.74693537 3.73289006 0.92143645 1.84287291 0 0 Z " fill="#9B9B9B" transform="translate(178,67)"/>
<path d="M0 0 C4.2742558 1.5830577 6.26531794 4.50568404 9 8 C7.68 7.67 6.36 7.34 5 7 C5 6.34 5 5.68 5 5 C4.01 4.67 3.02 4.34 2 4 C0.8125 1.9375 0.8125 1.9375 0 0 Z " fill="#1D1D1D" transform="translate(206,184)"/>
<path d="M0 0 C0.33 0.66 0.66 1.32 1 2 C-0.98 4.64 -2.96 7.28 -5 10 C-5.66 9.34 -6.32 8.68 -7 8 C-4.69 5.36 -2.38 2.72 0 0 Z " fill="#1B1B1B" transform="translate(203,133)"/>
<path d="M0 0 C0.99 0.33 1.98 0.66 3 1 C0.55419324 4.66871014 -2.12424268 6.06212134 -6 8 C-6 7.01 -6 6.02 -6 5 C-4.36368108 3.95107762 -2.69514137 2.95093297 -1 2 C-0.67 1.34 -0.34 0.68 0 0 Z " fill="#414141" transform="translate(234,115)"/>
<path d="M0 0 C3.465 1.485 3.465 1.485 7 3 C7 3.33 7 3.66 7 4 C3.7 4 0.4 4 -3 4 C-2.67 3.34 -2.34 2.68 -2 2 C-1.34 2 -0.68 2 0 2 C0 1.34 0 0.68 0 0 Z " fill="#131313" transform="translate(262,237)"/>
<path d="M0 0 C0 0.99 0 1.98 0 3 C-1.53125 4.38671875 -1.53125 4.38671875 -3.5 5.6875 C-4.47453125 6.34298828 -4.47453125 6.34298828 -5.46875 7.01171875 C-5.9740625 7.33785156 -6.479375 7.66398438 -7 8 C-7.33 6.68 -7.66 5.36 -8 4 C-6.576875 3.566875 -6.576875 3.566875 -5.125 3.125 C-1.94788422 2.23174891 -1.94788422 2.23174891 0 0 Z " fill="#9A9A9A" transform="translate(206,145)"/>
<path d="M0 0 C1.32 0.99 2.64 1.98 4 3 C3.67 5.31 3.34 7.62 3 10 C1.24118433 6.71687741 0 3.76143005 0 0 Z " fill="#666666" transform="translate(168,173)"/>
<path d="M0 0 C1.37562854 1.28965176 2.70766393 2.62689293 4 4 C4 4.66 4 5.32 4 6 C2.68 6 1.36 6 0 6 C0 4.02 0 2.04 0 0 Z " fill="#141414" transform="translate(175,153)"/>
<path d="M0 0 C1.9375 0.75 1.9375 0.75 4 2 C4.75 4.125 4.75 4.125 5 6 C4.01 6 3.02 6 2 6 C0 3 0 3 0 0 Z " fill="#424242" transform="translate(183,74)"/>
<path d="M0 0 C0.99 0.495 0.99 0.495 2 1 C1.67 1.66 1.34 2.32 1 3 C0.67 2.01 0.34 1.02 0 0 Z " fill="#FFFFFF" transform="translate(171,173)"/>
<path d="" fill="#FFFFFF" transform="translate(0,0)"/>
<path d="" fill="#FFFFFF" transform="translate(0,0)"/>
<path d="" fill="#FFFFFF" transform="translate(0,0)"/>
<path d="" fill="#FFFFFF" transform="translate(0,0)"/>
<path d="" fill="#FFFFFF" transform="translate(0,0)"/>
</svg>
