<svg width="51" height="57" viewBox="0 0 51 57" fill="none" xmlns="http://www.w3.org/2000/svg">
<path d="M4.55968 51.1614L0 0H50.12L45.5542 51.1533L25.0295 56.8438L4.55968 51.1614Z" fill="#1572B6"/>
<path d="M25.0599 52.4953L41.6461 47.8971L45.5481 4.1842H25.0599V52.4953Z" fill="#33A9DC"/>
<path d="M25.0599 22.7193H33.3632L33.9357 16.2939H25.0599V10.0188H25.0823H40.7935L40.6433 11.7018L39.1024 28.9945H25.0599V22.7193Z" fill="white"/>
<path d="M25.0985 39.0152L25.07 39.0233L18.0823 37.1353L17.6357 32.131H14.2393H11.3362L12.2152 41.9832L25.068 45.5522L25.0985 45.5441V39.0152Z" fill="#EBEBEB"/>
<path d="M32.8294 28.7284L32.0742 37.1311L25.0763 39.0191V45.5481L37.9392 41.9831L38.0346 40.9234L39.1248 28.7284H32.8294Z" fill="white"/>
<path d="M25.0822 10.0188V13.9167V16.2777V16.2939H9.94557H9.92526L9.79939 14.883L9.51315 11.7018L9.36292 10.0188H25.0822Z" fill="#EBEBEB"/>
<path d="M25.0599 22.7194V26.6172V28.9783V28.9945H18.1797H18.1594L18.0336 27.5836L17.7494 24.4023L17.5991 22.7194H25.0599Z" fill="#EBEBEB"/>
</svg>
