<svg width="51" height="69" viewBox="0 0 51 69" fill="none" xmlns="http://www.w3.org/2000/svg">
<path d="M0 55.5237L0.417665 54.9414L20.1217 17.5628L20.1635 17.1672L11.4785 0.853642C11.3195 0.555322 11.0707 0.31455 10.7673 0.165387C10.464 0.0162241 10.1214 -0.0337765 9.78805 0.0224587C9.45471 0.0786939 9.14749 0.238318 8.90986 0.478747C8.67223 0.719177 8.51621 1.02824 8.46389 1.36221L0 55.5237Z" fill="#FFC24A"/>
<path d="M0.245605 55.0815L0.560083 54.4673L20.0602 17.4768L11.3973 1.09934C11.2544 0.814525 11.0231 0.583664 10.7381 0.441346C10.453 0.299027 10.1294 0.252912 9.81594 0.309912C9.50245 0.366911 9.21586 0.523956 8.99911 0.757517C8.78237 0.991078 8.64713 1.28858 8.61367 1.60546L0.245605 55.0815Z" fill="#FFA712"/>
<path d="M26.4948 29.5056L32.9613 22.8721L26.4924 10.5362C26.35 10.2707 26.1383 10.0488 25.8798 9.89411C25.6213 9.73941 25.3256 9.65771 25.0244 9.65771C24.7231 9.65771 24.4275 9.73941 24.169 9.89411C23.9105 10.0488 23.6988 10.2707 23.5564 10.5362L20.0996 17.1255V17.6881L26.4948 29.5056Z" fill="#F4BD62"/>
<path d="M26.3794 29.2354L32.6665 22.7985L26.3794 10.809C26.2765 10.5494 26.1008 10.3252 25.8733 10.1634C25.6458 10.0015 25.3764 9.90885 25.0975 9.89665C24.8186 9.88444 24.5421 9.95318 24.3014 10.0946C24.0606 10.236 23.8659 10.444 23.7408 10.6935L20.2668 17.3983L20.1636 17.7398L26.3794 29.2354Z" fill="#FFA50E"/>
<path d="M0.00476074 55.5261L0.193939 55.3345L0.879403 55.0568L26.0868 29.9428L26.4062 29.0731L20.1191 17.0885L0.00476074 55.5261Z" fill="#F6820C"/>
<path d="M27.3006 68.1913L50.12 55.4672L43.5995 15.3442C43.5527 15.0614 43.429 14.7969 43.2417 14.5798C43.0545 14.3626 42.8111 14.2013 42.5382 14.1135C42.2653 14.0256 41.9735 14.0147 41.6948 14.0819C41.4161 14.149 41.1613 14.2916 40.9583 14.4941L0 55.5237L22.6842 68.1888C23.3894 68.5824 24.1836 68.7889 24.9912 68.7889C25.7988 68.7889 26.593 68.5824 27.2982 68.1888" fill="#FDE068"/>
<path d="M49.9111 55.3617L43.4446 15.5409C43.4332 15.2703 43.3418 15.0093 43.1819 14.7907C43.0221 14.5722 42.801 14.4059 42.5466 14.3131C42.2922 14.2202 42.0161 14.2049 41.753 14.2691C41.4899 14.3333 41.2518 14.474 41.0688 14.6736L0.245605 55.4477L22.6792 67.9777C23.3788 68.368 24.1666 68.5728 24.9678 68.5728C25.7689 68.5728 26.5567 68.368 27.2563 67.9777L49.9111 55.3617Z" fill="#FCCA3F"/>
<path d="M27.3006 67.8079C26.5954 68.2015 25.8012 68.4081 24.9936 68.4081C24.1861 68.4081 23.3919 68.2015 22.6867 67.8079L0.186721 55.332L0 55.5236L22.6842 68.1888C23.3894 68.5823 24.1836 68.7889 24.9912 68.7889C25.7988 68.7889 26.593 68.5823 27.2982 68.1888L50.12 55.4671L50.0635 55.1232L27.3006 67.8079Z" fill="#EEAB37"/>
</svg>
