<svg width="51" height="51" viewBox="0 0 51 51" fill="none" xmlns="http://www.w3.org/2000/svg">
<path d="M49.1715 22.8273L27.2918 0.94753C26.9925 0.647196 26.6369 0.408896 26.2453 0.246297C25.8537 0.083699 25.4339 0 25.0099 0C24.5859 0 24.166 0.083699 23.7745 0.246297C23.3829 0.408896 23.0272 0.647196 22.7279 0.94753L18.1838 5.49171L23.9468 11.2547C24.6263 11.0235 25.3572 10.9877 26.0561 11.1516C26.755 11.3155 27.3938 11.6724 27.8997 12.1817C28.4057 12.691 28.7584 13.3321 28.9176 14.0321C29.0769 14.7321 29.0363 15.4627 28.8006 16.1407L34.3488 21.689C35.1781 21.4041 36.0801 21.412 36.9043 21.7113C37.7285 22.0107 38.4253 22.5834 38.8784 23.3341C39.3316 24.0848 39.5139 24.9682 39.3949 25.837C39.2758 26.7058 38.8627 27.5075 38.2243 28.1087C37.5859 28.7098 36.7607 29.0741 35.8864 29.1407C35.012 29.2073 34.1412 28.9723 33.4191 28.4749C32.6969 27.9774 32.1671 27.2475 31.9178 26.4068C31.6685 25.5661 31.7148 24.6653 32.049 23.8546L26.8676 18.6732V32.3058C27.6525 32.6947 28.2805 33.3407 28.6469 34.1363C29.0133 34.932 29.0961 35.8291 28.8815 36.6783C28.6668 37.5276 28.1677 38.2776 27.4672 38.8036C26.7668 39.3295 25.9072 39.5996 25.0319 39.5688C24.1565 39.5381 23.318 39.2083 22.6562 38.6345C21.9944 38.0606 21.5492 37.2774 21.3947 36.4152C21.2402 35.553 21.3857 34.6639 21.8071 33.8959C22.2285 33.128 22.9003 32.5277 23.7105 32.1948V18.437C23.2418 18.2447 22.8157 17.9615 22.4569 17.6038C22.098 17.2461 21.8135 16.8209 21.6197 16.3528C21.4259 15.8847 21.3266 15.3828 21.3276 14.8761C21.3286 14.3695 21.4298 13.868 21.6255 13.4006L15.9519 7.72354L0.948429 22.7324C0.647825 23.0317 0.409298 23.3875 0.246541 23.7792C0.0837835 24.171 0 24.591 0 25.0152C0 25.4395 0.0837835 25.8595 0.246541 26.2512C0.409298 26.643 0.647825 26.9987 0.948429 27.2981L22.8282 49.1706C23.1275 49.471 23.4831 49.7093 23.8747 49.8719C24.2663 50.0345 24.6861 50.1182 25.1101 50.1182C25.5341 50.1182 25.9539 50.0345 26.3455 49.8719C26.7371 49.7093 27.0927 49.471 27.392 49.1706L49.1715 27.3858C49.4721 27.0864 49.7107 26.7307 49.8734 26.3389C50.0362 25.9472 50.12 25.5272 50.12 25.1029C50.12 24.6787 50.0362 24.2587 49.8734 23.8669C49.7107 23.4752 49.4721 23.1194 49.1715 22.8201" fill="#DD4C35"/>
<path d="M18.1838 5.49158L23.9469 11.2546C24.6264 11.0233 25.3573 10.9876 26.0562 11.1515C26.7551 11.3154 27.3939 11.6723 27.8998 12.1816C28.4058 12.6909 28.7584 13.332 28.9177 14.032C29.077 14.7319 29.0364 15.4626 28.8007 16.1406L34.3489 21.6888C35.1782 21.4039 36.0801 21.4118 36.9044 21.7112C37.7286 22.0105 38.4253 22.5833 38.8785 23.334C39.3317 24.0847 39.514 24.9681 39.395 25.8368C39.2759 26.7056 38.8628 27.5074 38.2244 28.1085C37.586 28.7097 36.7608 29.0739 35.8865 29.1406C35.0121 29.2072 34.1413 28.9722 33.4192 28.4747C32.697 27.9773 32.1672 27.2474 31.9179 26.4066C31.6686 25.5659 31.7149 24.6652 32.0491 23.8544L26.8677 18.6731V32.3057C27.6526 32.6945 28.2806 33.3406 28.647 34.1362C29.0134 34.9318 29.0962 35.829 28.8816 36.6782C28.6669 37.5274 28.1678 38.2775 27.4673 38.8034C26.7669 39.3294 25.9073 39.5995 25.0319 39.5687C24.1565 39.5379 23.3181 39.2082 22.6563 38.6343C21.9945 38.0605 21.5493 37.2773 21.3948 36.4151C21.2403 35.5528 21.3858 34.6637 21.8072 33.8958C22.2286 33.1279 22.9004 32.5275 23.7106 32.1947V18.4369C23.2419 18.2445 22.8158 17.9614 22.457 17.6037C22.0981 17.246 21.8136 16.8208 21.6198 16.3527C21.426 15.8845 21.3267 15.3827 21.3277 14.876C21.3287 14.3693 21.4299 13.8679 21.6255 13.4005L15.952 7.7234" fill="white"/>
</svg>
