<svg width="45" height="50" viewBox="0 0 45 50" fill="none" xmlns="http://www.w3.org/2000/svg">
<path d="M4.0125 45.0018L0 0H44.0893L40.0714 44.9946L22.0179 50L4.0125 45.0018Z" fill="#E44F26"/>
<path d="M22.0447 46.1748L36.634 42.1302L40.0661 3.68018H22.0447V46.1748Z" fill="#F1662A"/>
<path d="M22.0446 20.3697H14.7411L14.2375 14.7179H22.0446V9.19824H22.025H8.20535L8.3375 10.6804L9.69285 25.8893H22.0446V20.3697Z" fill="#EBEBEB"/>
<path d="M22.0447 34.7035L22.0197 34.7106L15.8733 33.0517L15.4804 28.6499H12.4929H9.93936L10.7126 37.3142L22.0197 40.4535L22.0447 40.4463V34.7035Z" fill="#EBEBEB"/>
<path d="M22.0251 20.3691V25.8888H28.8216L28.1823 33.0477L22.0251 34.7084V40.4513L33.3412 37.3138L33.4234 36.3816L34.7198 21.8513L34.8555 20.3691H33.368H22.0251Z" fill="#EEEEEE"/>
<path d="M22.0251 9.19824V12.6268V14.7054V14.7179H35.3394H35.3573L35.468 13.4786L35.7198 10.6804L35.8519 9.19824H22.0251Z" fill="#EEEEEE"/>
</svg>
