<svg width="51" height="51" viewBox="0 0 51 51" fill="none" xmlns="http://www.w3.org/2000/svg">
<path d="M0 0H50.12V50.12H0V0Z" fill="#F5DE19"/>
<path d="M33.668 39.1563C34.0951 40.0237 34.7585 40.7528 35.5819 41.2595C36.4054 41.7663 37.3552 42.03 38.322 42.0203C40.2731 42.0203 41.5207 41.0447 41.5207 39.6933C41.5207 38.0823 40.2391 37.5059 38.0911 36.5662L36.9133 36.0614C33.5123 34.6133 31.2569 32.8 31.2569 28.9658C31.2569 25.4342 33.9419 22.7438 38.1538 22.7438C39.5172 22.6453 40.8795 22.9505 42.0706 23.6212C43.2618 24.2919 44.2291 25.2984 44.8519 26.5153L41.1699 28.8692C40.9301 28.2658 40.5125 27.7496 39.9726 27.389C39.4326 27.0284 38.7958 26.8404 38.1466 26.85C37.8634 26.8217 37.5773 26.8527 37.3067 26.941C37.0361 27.0293 36.7868 27.173 36.5748 27.3629C36.3628 27.5529 36.1926 27.7849 36.0753 28.0442C35.9579 28.3036 35.8958 28.5845 35.893 28.8692C35.893 30.2815 36.7683 30.8543 38.7892 31.7332L39.967 32.2379C43.9695 33.9546 46.232 35.7034 46.232 39.636C46.232 43.8765 42.9008 46.1999 38.4276 46.1999C36.6847 46.311 34.9469 45.9153 33.4239 45.0606C31.9009 44.2058 30.6578 42.9286 29.8446 41.383L33.668 39.1563ZM17.03 39.5644C17.7692 40.8765 18.4423 41.9863 20.0604 41.9863C21.607 41.9863 22.5843 41.3813 22.5843 39.0274V23.0123H27.2938V39.0901C27.2938 43.966 24.4298 46.1856 20.2609 46.1856C18.7873 46.2662 17.3238 45.8989 16.0628 45.1322C14.8018 44.3654 13.8024 43.235 13.1958 41.8896L17.03 39.5644Z" fill="black"/>
</svg>
