<svg width="51" height="50" viewBox="0 0 51 50" fill="none" xmlns="http://www.w3.org/2000/svg">
<path d="M49.786 21.3637C49.0999 16.7389 47.1359 12.3976 44.1153 8.82893C41.0947 5.26026 37.1374 2.60607 32.6895 1.16539C30.9956 0.627489 29.2516 0.262529 27.4841 0.0760997C27.0145 0.0278852 23.7841 -0.0256866 23.377 0.0135993C23.2698 0.0135993 22.927 0.0564568 22.6198 0.0814569C19.0592 0.426097 15.6136 1.52903 12.5147 3.31612C9.41578 5.10321 6.73538 7.53302 4.65368 10.4422C2.32503 13.6744 0.811296 17.4211 0.241155 21.3637C0.0490827 22.5655 -0.0280517 23.783 0.0107967 24.9994C-0.0300986 26.2175 0.0452425 27.4367 0.235798 28.6405C0.920686 33.2662 2.8842 37.6085 5.90496 41.178C8.92572 44.7474 12.8836 47.402 17.3323 48.8424C19.0498 49.3866 20.8186 49.7534 22.6109 49.9371C24.2062 50.021 25.8049 50.021 27.4002 49.9371C30.5414 49.6299 33.5972 48.7365 36.4092 47.3031C36.8378 47.0835 36.9217 47.0245 36.8628 46.9763C36.8038 46.9281 34.9913 44.4888 32.7913 41.5174L28.7931 36.1173L23.7931 28.703C21.0359 24.628 18.768 21.2958 18.7484 21.2958C18.7287 21.2958 18.7091 24.5834 18.7002 28.6066C18.8277 31.1063 18.7919 33.6116 18.593 36.1066C18.5072 36.3014 18.3545 36.4591 18.1627 36.5513C18.0055 36.6298 17.868 36.6441 17.1305 36.6441H16.2859L16.0609 36.5031C15.9215 36.4154 15.808 36.2921 15.7323 36.1459L15.6305 35.9263L15.6394 26.128L15.6555 16.3244L15.8055 16.1333C15.9067 16.0143 16.0275 15.9134 16.1627 15.8351C16.3627 15.7387 16.4412 15.728 17.2859 15.728C18.2841 15.728 18.4502 15.7672 18.7145 16.0512C18.7877 16.1297 21.5002 20.2137 24.7448 25.1351C27.9895 30.0566 32.4235 36.7763 34.6092 40.0745L38.5646 46.071L38.7645 45.9388C40.6708 44.6713 42.3986 43.1543 43.9021 41.4281C47.052 37.8233 49.095 33.3864 49.786 28.6495C49.9772 27.4427 50.0525 26.2205 50.011 24.9994C50.0517 23.7831 49.9763 22.5657 49.786 21.3637ZM34.1413 24.6762L34.127 33.4638L32.577 31.0887L31.0234 28.7137V22.3208C31.0234 18.1923 31.0431 15.8708 31.0717 15.7583C31.1065 15.6283 31.1674 15.5066 31.2505 15.4007C31.3337 15.2948 31.4375 15.2069 31.5556 15.1422C31.7556 15.0387 31.8288 15.0297 32.5967 15.0297C33.311 15.0297 33.4467 15.0387 33.6074 15.128C33.7242 15.1861 33.8282 15.2671 33.9132 15.3662C33.9982 15.4653 34.0624 15.5804 34.102 15.7047C34.1413 15.8369 34.1502 18.553 34.1413 24.6762Z" fill="black"/>
</svg>
