<svg width="57" height="50" viewBox="0 0 57 50" fill="none" xmlns="http://www.w3.org/2000/svg">
<path d="M28.0954 29.9667C30.8662 29.9667 33.1124 27.7205 33.1124 24.9496C33.1124 22.1788 30.8662 19.9326 28.0954 19.9326C25.3246 19.9326 23.0784 22.1788 23.0784 24.9496C23.0784 27.7205 25.3246 29.9667 28.0954 29.9667Z" fill="#00D8FF"/>
<path d="M28.0954 36.4527C22.0652 36.5986 16.0501 35.7857 10.2749 34.0445C7.60706 33.1988 5.11884 31.8666 2.93596 30.1152C2.103 29.5169 1.40933 28.7454 0.902547 27.8538C0.395768 26.9622 0.0878775 25.9715 0 24.9497C0 21.6324 3.64437 18.3814 9.74909 16.2541C15.6787 14.3692 21.8741 13.4557 28.0954 13.549C34.2336 13.4632 40.346 14.3602 46.2008 16.206C48.7701 17.0251 51.1739 18.2929 53.3009 19.9507C54.1196 20.5211 54.8029 21.2646 55.3023 22.1285C55.8017 22.9924 56.105 23.9555 56.1907 24.9497C56.1907 28.3974 52.1169 31.8912 45.5546 34.0626C39.8912 35.747 34.0031 36.5531 28.0954 36.4527ZM28.0954 15.9491C22.1434 15.8695 16.2167 16.738 10.5378 18.5218C4.91869 20.4825 2.40015 23.1636 2.40015 24.9436C2.40015 26.806 5.10733 29.7339 11.0515 31.7668C16.5764 33.4241 22.329 34.1956 28.0954 34.0525C33.7473 34.1536 39.3815 33.3889 44.8021 31.7848C50.973 29.7399 53.7825 26.808 53.7825 24.9497C53.6813 24.3119 53.4489 23.7022 53.1 23.1588C52.7511 22.6155 52.2934 22.1504 51.7557 21.7929C49.8527 20.3222 47.7053 19.1986 45.4121 18.4737C39.8112 16.7152 33.9652 15.863 28.0954 15.9491Z" fill="#00D8FF"/>
<path d="M16.6965 49.9725C15.7604 49.994 14.8352 49.7669 14.0154 49.3143C11.1417 47.6567 10.1463 42.8765 11.3524 36.5249C12.6822 30.4465 14.9863 24.6231 18.1756 19.2804C21.1672 13.9204 24.9971 9.07356 29.5201 4.92365C31.5131 3.10689 33.8124 1.65765 36.3111 0.643121C37.2149 0.219562 38.2008 0 39.1989 0C40.197 0 41.1829 0.219562 42.0867 0.643121C45.0749 2.36496 46.0642 7.63886 44.6695 14.4078C43.2986 20.1565 41.0543 25.6609 38.0149 30.7292C35.1286 36.0259 31.4193 40.8305 27.0256 44.9635C24.9602 46.8515 22.5631 48.3409 19.9556 49.3564C18.9117 49.7439 17.8098 49.9522 16.6965 49.9725ZM20.2546 20.4724C17.2125 25.5884 15.0041 31.1561 13.7124 36.9664C12.6026 42.8163 13.6683 46.3342 15.2175 47.2292C16.823 48.1584 20.7202 47.2774 25.4523 43.1434C29.6465 39.1838 33.187 34.5847 35.9419 29.5171C38.8536 24.6717 41.0064 19.4091 42.3255 13.9122C43.638 7.54053 42.5041 3.63929 40.8947 2.71214C40.2914 2.48101 39.6468 2.37755 39.0016 2.40829C38.3563 2.43903 37.7245 2.60331 37.1459 2.89075C34.9218 3.80856 32.8769 5.11155 31.1054 6.73981C26.7841 10.7149 23.1257 15.3549 20.2687 20.4845L20.2546 20.4724Z" fill="#00D8FF"/>
<path d="M39.488 49.9984C36.7688 49.9984 33.3151 48.3528 29.7189 45.2603C25.1167 41.0727 21.222 36.1682 18.1857 30.737C15.0365 25.4679 12.7506 19.7288 11.4148 13.7373C10.8354 11.1014 10.7281 8.38355 11.0977 5.71009C11.1831 4.71834 11.4851 3.75741 11.9824 2.89507C12.4796 2.03272 13.1599 1.28996 13.9755 0.719155C16.9596 -1.00871 22.0228 0.767319 27.1903 5.35489C31.4861 9.41303 35.134 14.106 38.007 19.2701C41.1543 24.4163 43.4641 30.0297 44.8502 35.9006C45.4545 38.6332 45.5477 41.4542 45.1252 44.2208C45.0246 45.2411 44.7046 46.2275 44.1871 47.1126C43.6696 47.9976 42.9669 48.7602 42.127 49.3482C41.3206 49.7952 40.4098 50.0196 39.488 49.9984ZM20.2628 29.5289C23.1755 34.7194 26.8959 39.4132 31.2842 43.4341C35.7975 47.3173 39.3777 48.1521 40.9169 47.2471C42.5223 46.3139 43.7064 42.505 42.4862 36.3421C41.1494 30.7369 38.9339 25.3787 35.9219 20.4662C33.1803 15.5236 29.6983 11.0299 25.5969 7.14095C20.7324 2.82229 16.787 1.85702 15.1795 2.78818C14.6785 3.19532 14.2674 3.70193 13.9721 4.276C13.6767 4.85007 13.5036 5.47915 13.4637 6.1235C13.1446 8.50776 13.2486 10.9296 13.7708 13.2778C15.0557 19.0075 17.248 24.4951 20.2648 29.5329L20.2628 29.5289Z" fill="#00D8FF"/>
</svg>
