<svg width="50" height="50" viewBox="0 0 50 50" fill="none" xmlns="http://www.w3.org/2000/svg">
<path fill-rule="evenodd" clip-rule="evenodd" d="M25 0C29.9445 0 34.778 1.46622 38.8892 4.21326C43.0005 6.96029 46.2048 10.8648 48.097 15.4329C49.9892 20.0011 50.4842 25.0277 49.5196 29.8773C48.555 34.7268 46.174 39.1813 42.6777 42.6777C39.1813 46.174 34.7268 48.555 29.8773 49.5196C25.0277 50.4842 20.0011 49.9892 15.4329 48.097C10.8648 46.2048 6.96029 43.0005 4.21326 38.8892C1.46622 34.778 0 29.9445 0 25C0 18.3696 2.63392 12.0107 7.32233 7.32233C12.0107 2.63392 18.3696 0 25 0Z" fill="#CC6699"/>
<path d="M40.6821 10.6998C39.55 6.26056 32.1875 4.80699 25.2196 7.27485C20.8559 8.74119 16.8242 11.0538 13.3554 14.0802C9.51786 17.6695 8.90536 20.7945 9.15715 22.0998C10.05 26.707 16.3589 29.7177 18.9536 31.9516V31.9641C18.1893 32.3409 12.5893 35.1784 11.275 38.0713C9.89286 41.1284 11.4946 43.3213 12.5571 43.6159C14.1524 44 15.8278 43.875 17.3484 43.2585C18.8689 42.642 20.1583 41.5649 21.0357 40.1784C21.7608 39.0551 22.2145 37.7783 22.3608 36.4493C22.507 35.1203 22.342 33.7755 21.8786 32.5213C23.1283 32.2037 24.4275 32.1291 25.7054 32.3016C30.0911 32.8141 30.9518 35.5516 30.7875 36.6981C30.7102 37.1061 30.546 37.4928 30.306 37.8317C30.0659 38.1707 29.7557 38.454 29.3964 38.6623C29.0893 38.8534 28.9946 38.9177 29.0214 39.0606C29.0589 39.2659 29.2 39.2588 29.4625 39.2141C30.1216 39.0066 30.7023 38.6042 31.1282 38.0601C31.554 37.5159 31.8051 36.8555 31.8482 36.1659C31.9536 33.4873 29.3804 30.4766 24.8232 30.5534C23.4996 30.5156 22.1789 30.6966 20.9143 31.0891C20.8518 31.0177 20.7875 30.9463 20.7214 30.8748C17.9036 27.8695 12.6964 25.7427 12.9161 21.7016C12.9964 20.232 13.5071 16.3641 22.9161 11.6713C30.6304 7.82663 36.8054 8.88556 37.8732 11.2302C39.3982 14.5802 34.5732 20.8034 26.5625 21.7016C25.6771 21.8814 24.7626 21.8595 23.8868 21.6375C23.011 21.4155 22.1965 20.9992 21.5036 20.4195C21.0821 19.9552 21.0196 19.9356 20.8625 20.0213C20.6071 20.1623 20.7696 20.5731 20.8625 20.8159C21.1692 21.3687 21.5833 21.8547 22.0804 22.2454C22.5774 22.636 23.1475 22.9235 23.7571 23.0909C26.9067 23.7753 30.1919 23.4504 33.1464 22.1623C38.0054 20.2891 41.7946 15.0659 40.6821 10.6998ZM20.0321 33.3266C20.3868 34.5493 20.3688 35.85 19.9804 37.0623C19.9387 37.1885 19.8929 37.3135 19.8429 37.4373C19.7929 37.5611 19.7387 37.6802 19.6804 37.7945C19.3798 38.4094 18.9905 38.9767 18.525 39.4784C17.0732 41.0623 15.0429 41.6623 14.1732 41.157C13.2339 40.6123 13.7036 38.3784 15.3875 36.5981C16.6814 35.3186 18.1732 34.2561 19.8054 33.4516L20.0321 33.3266Z" fill="#EEEEEE"/>
</svg>
