<svg width="41" height="25" viewBox="0 0 41 25" fill="none" xmlns="http://www.w3.org/2000/svg">
<path d="M10.0605 8.04842C11.4019 2.68281 14.7554 0 20.1211 0C28.1695 0 29.1755 6.03632 33.1997 7.04237C35.8825 7.71307 38.23 6.70702 40.2421 4.02421C38.9007 9.38982 35.5472 12.0726 30.1816 12.0726C22.1332 12.0726 21.1271 6.03632 17.1029 5.03026C14.4201 4.35956 12.0726 5.36561 10.0605 8.04842ZM0 20.1211C1.3414 14.7554 4.69491 12.0726 10.0605 12.0726C18.1089 12.0726 19.115 18.1089 23.1392 19.115C25.822 19.7857 28.1695 18.7796 30.1816 16.0968C28.8402 21.4625 25.4867 24.1453 20.1211 24.1453C12.0726 24.1453 11.0666 18.1089 7.04237 17.1029C4.35956 16.4322 2.01211 17.4382 0 20.1211Z" fill="#44A8B3"/>
</svg>
