<svg width="51" height="51" viewBox="0 0 51 51" fill="none" xmlns="http://www.w3.org/2000/svg">
<path d="M47.7715 0H2.34848C1.05145 0 0 1.05145 0 2.34848V47.7715C0 49.0685 1.05145 50.12 2.34848 50.12H47.7715C49.0685 50.12 50.12 49.0685 50.12 47.7715V2.34848C50.12 1.05145 49.0685 0 47.7715 0Z" fill="#3178C6"/>
<path fill-rule="evenodd" clip-rule="evenodd" d="M29.0785 38.9485V44.4403C30.0763 44.9327 31.1397 45.2794 32.236 45.4695C33.503 45.7034 34.789 45.8185 36.0774 45.8132C37.333 45.8192 38.5858 45.6926 39.8149 45.4355C40.9184 45.2125 41.9712 44.7877 42.9205 44.1825C43.8018 43.6136 44.5282 42.835 45.0345 41.9164C45.9414 40.0142 46.061 37.831 45.3675 35.8411C45.0748 35.097 44.6387 34.4176 44.084 33.8417C43.4886 33.2292 42.8123 32.7011 42.0739 32.2718C41.2237 31.7739 40.3403 31.3349 39.43 30.958C38.714 30.6608 38.0696 30.3721 37.4968 30.0916C36.9881 29.848 36.5012 29.5612 36.0416 29.2342C35.6816 28.9818 35.3689 28.668 35.1179 28.307C34.9011 27.9793 34.7882 27.5937 34.7939 27.2008C34.7892 26.8391 34.8899 26.4839 35.0839 26.1787C35.2946 25.8592 35.5757 25.5922 35.9055 25.3982C36.3088 25.1608 36.7475 24.9898 37.2051 24.8917C37.7668 24.7669 38.3409 24.7068 38.9163 24.7127C39.4002 24.7143 39.8834 24.749 40.3626 24.8165C40.8801 24.8865 41.3921 24.9923 41.8949 25.1333C42.4063 25.2751 42.9065 25.4546 43.3913 25.6703C43.8618 25.88 44.3118 26.1329 44.7356 26.4257V21.3009C43.8533 20.9671 42.9384 20.7272 42.0058 20.5849C40.8797 20.4211 39.7427 20.3439 38.6048 20.354C37.361 20.3473 36.1208 20.4885 34.9103 20.7747C33.8161 21.0247 32.7758 21.4691 31.8386 22.0868C30.9681 22.6667 30.2493 23.4468 29.7426 24.3618C29.2055 25.378 28.9398 26.5155 28.9711 27.6644C28.9314 29.1837 29.4318 30.6679 30.3834 31.853C31.5508 33.167 33.0229 34.1744 34.6704 34.7868C35.4222 35.0971 36.1233 35.4008 36.7737 35.6979C37.3605 35.959 37.9245 36.2685 38.4599 36.6233C38.8917 36.9042 39.2709 37.2586 39.5804 37.6705C39.8525 38.044 39.9969 38.4954 39.9921 38.9575C39.9946 39.3038 39.9056 39.6446 39.7343 39.9456C39.544 40.269 39.2765 40.5402 38.9557 40.735C38.5543 40.9797 38.1152 41.1563 37.6561 41.2576C37.0582 41.3913 36.4466 41.4544 35.8339 41.4456C34.6316 41.4434 33.4389 41.2314 32.3094 40.8191C31.1295 40.3933 30.0352 39.7598 29.0785 38.9485ZM19.8528 25.2765H27.0128V20.7532H7.04895V25.2765H14.1767V45.4212H19.8528V25.2765Z" fill="white"/>
</svg>
